<svg xmlns="http://www.w3.org/2000/svg" viewBox="0 0 490.872 137.667" fill="#fff"><defs><style>.logo_cls-1_{fill:#003679}.logo_cls-2_{fill:#ec1c24}</style></defs><path class="logo_cls-2" d="M251.739 104.367c27.545-10.365 61.49 12.358 88.706 5.777 1.405-.338 2.401.437.9 1.469-9.212 6.325-15.541 10.874-29.829 10.246-7.212-.316-17.815-4.367-28.793-7.953l-.059-.021c-10.27-3.607-20.562-7.312-30.925-9.518" fill-rule="evenodd" clip-rule="evenodd"/><path class="logo_cls-1" d="M142.95 122.557c16.269-12.165 37.118-16.658 60.231-16.212 28.095.544 55.27 18.649 83.099 21.275 6.615.622 13.263.412 19.967-1.053.904-.155 1.529.839.197 1.507-15.401 7.613-29.022 9.123-41.96 7.957-27.449-2.471-51.52-19.333-84.082-18.863-11.055.157-23.107 2.321-36.6 7.08-1.224.42-1.602-1.003-.852-1.691m8.169-116.761h-9.838a2.564 2.564 0 0 0-2.563 2.565v87.148a2.563 2.563 0 0 0 2.569 2.565l9.828.002a2.567 2.567 0 0 0 2.565-2.567V8.361a2.564 2.564 0 0 0-2.561-2.565zm335.165 36.627a44.363 44.363 0 0 0-2.696-8.783 43.827 43.827 0 0 0-4.297-7.862 43.62 43.62 0 0 0-5.787-6.79 44.032 44.032 0 0 0-7.151-5.558 48.408 48.408 0 0 0-8.329-4.131 50.868 50.868 0 0 0-9.49-2.63 58.892 58.892 0 0 0-10.229-.873v.008l-26.209.004a2.545 2.545 0 0 0-2.548 2.552h-.008l-.009 87.15a2.57 2.57 0 0 0 2.565 2.565c.074 0 .147-.006.223-.011h25.986l-.002.011c2.83 0 5.592-.195 8.261-.575a52.647 52.647 0 0 0 7.815-1.713 50.346 50.346 0 0 0 7.117-2.743 45.25 45.25 0 0 0 6.399-3.709l.011-.004-.002.006a45.337 45.337 0 0 0 5.592-4.582 43.89 43.89 0 0 0 4.751-5.369c.038-.051.07-.108.106-.159a43.3 43.3 0 0 0 3.711-5.93 43.993 43.993 0 0 0 2.809-6.688 45.198 45.198 0 0 0 1.722-7.218c.389-2.499.588-5.032.586-7.579a48.66 48.66 0 0 0-.897-9.389zm-15.027 16.165a32.57 32.57 0 0 1-1.775 6.091 29.592 29.592 0 0 1-2.815 5.365 29.452 29.452 0 0 1-3.847 4.656 28.916 28.916 0 0 1-4.779 3.817 32.731 32.731 0 0 1-5.73 2.885 34.803 34.803 0 0 1-6.622 1.834c-2.323.41-4.785.618-7.384.618h-13.804v-63.84l13.802.002c2.645 0 5.123.21 7.424.626A33.865 33.865 0 0 1 452.3 22.5c2.072.824 3.987 1.8 5.728 2.93a29.702 29.702 0 0 1 8.632 8.551l.085.127a29.958 29.958 0 0 1 2.737 5.282 32.746 32.746 0 0 1 1.773 6.127c.389 2.074.594 4.257.588 6.543 0 2.284-.193 4.46-.586 6.528zm-93.551 2.927l-.008.002a37.455 37.455 0 0 0 6.174-2.289 30.04 30.04 0 0 0 4.38-2.554 28.575 28.575 0 0 0 3.824-3.202l-.002.006a24.065 24.065 0 0 0 3.14-3.868 26.11 26.11 0 0 0 2.34-4.505 25.665 25.665 0 0 0 1.465-5.142c.318-1.766.49-3.635.478-5.582-.004-2.879-.361-5.569-1.074-8.059a25.203 25.203 0 0 0-3.248-7.07 26.047 26.047 0 0 0-5.168-5.745c-1.985-1.648-4.255-3.057-6.828-4.223-2.543-1.157-5.318-2.038-8.316-2.622-2.934-.571-6.07-.868-9.414-.868l-32.761.002a2.559 2.559 0 0 0-2.558 2.563v.066l-.004 87.084a2.565 2.565 0 0 0 2.565 2.563l9.836.002a2.568 2.568 0 0 0 2.565-2.565c0-.074 0-.149-.008-.221V20.014l19.615.002c2.21 0 4.24.157 6.078.478 1.841.316 3.503.783 4.983 1.397 1.439.592 2.694 1.31 3.768 2.151a12.584 12.584 0 0 1 2.686 2.862 12.024 12.024 0 0 1 1.648 3.541c.38 1.327.573 2.764.569 4.312-.004 1.618-.214 3.125-.637 4.518a12.384 12.384 0 0 1-1.798 3.709 14.589 14.589 0 0 1-2.898 3.036c-1.138.892-2.439 1.652-3.904 2.276a23.332 23.332 0 0 1-4.879 1.456c-1.758.325-3.669.49-5.732.49h-8.116a2.568 2.568 0 0 0-2.567 2.567c0 .643.24 1.229.633 1.679l31.396 42.544a2.558 2.558 0 0 0 2.051 1.032v.008l12.078.002a2.565 2.565 0 0 0 2.565-2.565 2.57 2.57 0 0 0-.645-1.709l-24.272-32.285zm-53.023 32.942l-39.716-87.77a2.557 2.557 0 0 0-2.333-1.51l.004-.002h-9.212a2.57 2.57 0 0 0-2.414 1.679l-35.496 78.45c-6.257-2.824-19.265-4.768-34.302-4.768-5.373 0-10.505.251-15.152.701l34.551-43.835.057-.068 16.386-20.789c.372-.471.541-1.03.541-1.584h.013V8.36a2.57 2.57 0 0 0-2.573-2.563l-.064-.002h-67.908a2.569 2.569 0 0 0-2.565 2.567l.004.064V17.2a2.56 2.56 0 0 0 2.777 2.554h49.051l-53.147 67.573a2.531 2.531 0 0 0-.552 1.584l-.002-.002v6.599a2.567 2.567 0 0 0 2.565 2.567c.072-.002.144-.004.217-.011h.658c2.435-1.002 5.722-1.87 9.654-2.58h.004l.038-.006a98.474 98.474 0 0 1 4.826-.737l.019-.004.325-.04.008-.002.049-.006.085-.008.038-.006.038-.006.087-.008.049-.006.036-.004.306-.038.04-.004.601-.07.047-.004.04-.006h.017l.594-.068.047-.004.047-.004.297-.032.047-.004.268-.03.038-.004.125-.011.019-.004.038-.004.047-.004.125-.013.057-.004.18-.019.087-.008h.008l.174-.015.036-.004.049-.006.363-.036.087-.006.036-.002.144-.015.038-.004.057-.002.085-.011.038-.002.059-.004.352-.032.008-.002.098-.006.036-.004.057-.006.087-.006.038-.002.057-.004.096-.008.028-.002.059-.004.448-.038.047-.004.193-.013.735-.057h.008l.679-.049.076-.004h.008l.183-.013.18-.011.172-.013h.021l.189-.013h.03l.163-.011.2-.013.142-.008.049-.002.068-.004.314-.019.191-.011h.008l.106-.004.076-.006.068-.004.284-.015h.038l.125-.006.066-.004.191-.011h.011l.601-.028.076-.002.344-.015.057-.002.049-.002h.068l.017-.002h.011l.314-.013h.011l.268-.013h.008l.049-.002h.019l.191-.006h.046l.011-.002h.057l.028-.004.346-.011.055-.002h.057l.057-.002.087-.002h.019l.057-.004h.008l.27-.008h.008l.057-.002h.019l.085-.002.087-.002.085-.004.087-.002.096-.004h.019l.592-.013.087-.002.352-.006.172-.002.087-.002.161-.006h.027l.134-.002h.03l.096-.002h.087l.085-.002h.096l.142-.002h.03l.03-.002h.055l.488-.004.382-.002.191-.004h.095l.372-.002h.134l.144-.002h.668l.008.002.679.002h.076l.268.004h.115l.123.002.669.006h.041l.047.002.478.006h.104l.049.002h.038l.085.004.631.011h.011l.087.002.611.015h.008l.085.004 1.253.036h.03l.017.002h.038l.622.025.087.004h.008l.592.023.21.008 1.155.057.049.002.038.002.028.002h.039l.439.023.04.002.391.021.038.002.085.006.221.015.183.008.055.002.251.017.047.002.183.013.352.023h.008l.65.045.038.002.144.011.03.004.17.013.172.013.04.002.486.038.516.04.172.015.049.004.62.055h.008l.163.017.038.002.306.025.087.008.076.006.505.049.019.002.142.015.049.002.773.083h.011c1.176.121 2.299.259 3.399.408l.021.002.066.008.163.023.019.002.057.006.038.006.028.002.059.008.017.002.076.013.03.002.057.008.096.013.03.004.055.008.021.002.076.013.028.002.21.034.028.002.057.008.038.004.021.002.028.006.21.03.057.011.038.004.049.008.2.03h.008l.057.013.04.004.076.013h.008l.085.013.019.006.325.049.03.002.582.096.087.015.087.015.486.083.008.004.087.013.085.015.163.03.087.015h.008l.221.04.505.096.085.015.488.093.068.015c2.539.499 4.777 1.072 6.654 1.703.081-.068.142-.14.21-.217a2.55 2.55 0 0 0 1.909.853l.006.004h10.078a2.564 2.564 0 0 0 2.41-1.692l9.581-21.339H299.9l9.524 21.498a2.546 2.546 0 0 0 2.501 1.524h10.426a2.55 2.55 0 0 0 2.323-3.603l.009-.007zm-62.75-33.373l15.965-35.627 15.868 35.627h-31.833zM129.609 6.062a2.637 2.637 0 0 0-1.013-.204l.004-.006h-10.959a2.425 2.425 0 0 0-2.357 1.773L90.466 75.557 65.642 7.625a2.415 2.415 0 0 0-2.35-1.773h-10.96l-.002.006c-.335 0-.675.066-1.013.204-1.325.554-1.996 2.057-1.507 3.357l7.731 20.376-16.72 45.749L15.993 7.625a2.411 2.411 0 0 0-2.354-1.773H2.681v.006a2.69 2.69 0 0 0-1.013.204C.343 6.616-.33 8.119.158 9.419l33.237 87.596a2.423 2.423 0 0 0 2.35 1.737h10.147a2.413 2.413 0 0 0 2.34-1.735L65.64 51.143l17.404 45.871a2.426 2.426 0 0 0 2.352 1.737h10.139a2.419 2.419 0 0 0 2.346-1.737l33.241-87.596c.497-1.299-.189-2.802-1.513-3.356z" fill-rule="evenodd" clip-rule="evenodd"/></svg>