<svg data-name="Layer 1" xmlns="http://www.w3.org/2000/svg" viewBox="0 0 300 300"><defs><style>.cls-1{fill:#fff;fill-rule:evenodd}</style></defs><title>Artboard 1</title><path class="cls-1" d="M157.55 127c29.26-11 65.31 13.13 94.21 6.14 1.49-.36 2.55.46 1 1.56-9.79 6.72-16.51 11.55-31.68 10.88-7.66-.34-18.92-4.64-30.58-8.45h-.07c-10.9-3.83-21.83-7.76-32.84-10.11M42 146.32c17.28-12.92 39.42-17.69 64-17.22 29.84.58 58.7 19.81 88.26 22.6a68.34 68.34 0 0 0 21.2-1.12c1-.16 1.63.89.21 1.6a80.23 80.23 0 0 1-44.56 8.45c-29.15-2.62-54.72-20.53-89.3-20-11.74.17-24.54 2.46-38.87 7.52-1.3.44-1.7-1.07-.91-1.8"/></svg>