<svg xmlns="http://www.w3.org/2000/svg" viewBox="0 0 105.73 17.03"><defs><style>.cls-1{fill:#ed1c24}.cls-2{fill:#231f20}</style></defs><title>alcaplast</title><g id="Слой_2" data-name="Слой 2"><g id="Layer_1" data-name="Layer 1"><path class="cls-1" d="M6.27 10.4L8 4.8l1.74 5.6zM5.7 0L0 16.94h4.28l1.06-3.47h5.33l1.07 3.47h4.39L10.35 0zm11.02.01v16.93h3.99V.01h-3.99zm12.06 3.48a9.56 9.56 0 0 0-2.7.38 6.29 6.29 0 0 0-2.25 1.18 5.93 5.93 0 0 0-1.58 2.12 7.62 7.62 0 0 0-.58 3.13 7.52 7.52 0 0 0 .54 3 5.63 5.63 0 0 0 1.49 2.09A6.21 6.21 0 0 0 26 16.6a9.87 9.87 0 0 0 2.9.4 8.32 8.32 0 0 0 1.34-.09c.34-.06.7-.14 1.09-.24a6.65 6.65 0 0 0 .91-.32L33 16v-3.42h-.51L32 13a4.26 4.26 0 0 1-1.66.91 4.66 4.66 0 0 1-1.32.17 3.12 3.12 0 0 1-2.38-.95 4.06 4.06 0 0 1-.9-2.88 4.53 4.53 0 0 1 .84-2.87A2.83 2.83 0 0 1 29 6.37a4.14 4.14 0 0 1 1.22.17 5.14 5.14 0 0 1 1 .4 5.64 5.64 0 0 1 .76.5c.23.18.43.35.59.5H33V4.52a9.62 9.62 0 0 0-2.13-.78 9.36 9.36 0 0 0-2.12-.25z"/><path class="cls-2" d="M57 8.85a2.42 2.42 0 0 1-.56.85 2.26 2.26 0 0 1-1.07.61 6.85 6.85 0 0 1-1.69.17h-1.22V5.3h1.43a6.94 6.94 0 0 1 1.35.11 2.64 2.64 0 0 1 1 .38 1.92 1.92 0 0 1 .7.81 2.74 2.74 0 0 1 .23 1.17A3 3 0 0 1 57 8.85zm.43-4.23A4.22 4.22 0 0 0 56 4a8.67 8.67 0 0 0-2-.19h-3.26v13h1.72V12h1.46a6.63 6.63 0 0 0 2.29-.34 4.42 4.42 0 0 0 1.58-1 3.79 3.79 0 0 0 .83-1.28 4.28 4.28 0 0 0 .3-1.6 3.84 3.84 0 0 0-.41-1.84 3.57 3.57 0 0 0-1.13-1.26zm13.7 7.07l2-6.11 2 6.11zm1-7.87l-4 11.85v-.41h-5.81V3.82H60.6v13h8.88l1.17-3.62h5l1.18 3.62h1.82l-4.37-13zm13.3 6c-.35-.1-.79-.22-1.32-.34l-1.34-.34a2.57 2.57 0 0 1-1.26-.71 1.91 1.91 0 0 1-.43-1.32 1.76 1.76 0 0 1 .74-1.48 3.12 3.12 0 0 1 1.94-.56 5 5 0 0 1 2 .42 5.72 5.72 0 0 1 1.58 1h.13V4.42a8.28 8.28 0 0 0-1.8-.62 9.39 9.39 0 0 0-2.06-.22 4.61 4.61 0 0 0-3.11 1.07 3.36 3.36 0 0 0-1.23 2.65 3.69 3.69 0 0 0 .22 1.34 3 3 0 0 0 .62 1 3.36 3.36 0 0 0 .94.7 5.86 5.86 0 0 0 1.2.45l1.25.3c.33.07.7.17 1.1.29a2.28 2.28 0 0 1 1.22.72 2 2 0 0 1 .38 1.26 1.92 1.92 0 0 1-.73 1.57 3.35 3.35 0 0 1-2.16.6 5.47 5.47 0 0 1-2.08-.44 6.17 6.17 0 0 1-1.93-1.24h-.12V16a11.93 11.93 0 0 0 1.86.72 8.68 8.68 0 0 0 2.4.29 5.47 5.47 0 0 0 2-.31 4.53 4.53 0 0 0 1.42-.87 3.56 3.56 0 0 0 .87-1.25A3.9 3.9 0 0 0 88 13.1a3.32 3.32 0 0 0-.62-2 3.71 3.71 0 0 0-2-1.24zm3.03-4.47h4.36v11.44h1.72V5.35h4.36V3.82H88.46v1.53zm16.67.39a1.68 1.68 0 0 1-.67.67 1.8 1.8 0 0 1-1.79 0 1.69 1.69 0 0 1-.67-.67 1.8 1.8 0 0 1 0-1.8 1.67 1.67 0 0 1 .67-.67 1.8 1.8 0 0 1 1.77 0 1.68 1.68 0 0 1 .68.67 1.85 1.85 0 0 1 .24.9 1.82 1.82 0 0 1-.24.89zm.31-2a2 2 0 0 0-.81-.8 2.17 2.17 0 0 0-2.13 0 2 2 0 0 0-.81.8 2.16 2.16 0 0 0 0 2.16 2 2 0 0 0 .8.8 2.17 2.17 0 0 0 2.15 0 2 2 0 0 0 .8-.8 2.18 2.18 0 0 0 .29-1.07 2.21 2.21 0 0 0-.29-1.08z"/><path class="cls-2" d="M103.45 4.74H103V4h.43a1.14 1.14 0 0 1 .38 0 .34.34 0 0 1 .16.12.33.33 0 0 1-.06.44.74.74 0 0 1-.45.1zm.49.39a.62.62 0 0 0-.2-.12.72.72 0 0 0 .48-.21.62.62 0 0 0 .18-.44.6.6 0 0 0-.11-.34.59.59 0 0 0-.29-.23 2 2 0 0 0-.59-.06h-.8V6h.39V5h.22a.48.48 0 0 1 .3.08 1.88 1.88 0 0 1 .39.54l.21.37h.46l-.28-.45a2.74 2.74 0 0 0-.34-.46z"/><path class="cls-1" d="M41 14a2.68 2.68 0 0 1-1.07.24 2.52 2.52 0 0 1-1.43-.34 1.41 1.41 0 0 1-.5-1.25 1.55 1.55 0 0 1 .29-1 1.72 1.72 0 0 1 .81-.55 5.76 5.76 0 0 1 1.23-.29l1.67-.17v2.67a3.32 3.32 0 0 1-1 .69zm3.45-9.4a8.3 8.3 0 0 0-4.82-1.1 15.38 15.38 0 0 0-2.67.23 4.12 4.12 0 0 0-1.96.8v3.42h.51c.16-.15.35-.32.59-.5a5.56 5.56 0 0 1 .76-.5 5.12 5.12 0 0 1 1-.4 4.15 4.15 0 0 1 1.22-.17 2.83 2.83 0 0 1 2.37 1.07 3.53 3.53 0 0 1 .47.81q-1.69.12-3.16.32a8.61 8.61 0 0 0-2.59.73 3.89 3.89 0 0 0-1.64 1.39A4.16 4.16 0 0 0 34 13a3.92 3.92 0 0 0 1.12 2.87A3.8 3.8 0 0 0 37.91 17a5.77 5.77 0 0 0 1.42-.14 6.05 6.05 0 0 0 1-.4 4.63 4.63 0 0 0 .87-.55l.8-.61V17h4V8a3.88 3.88 0 0 0-1.51-3.36z"/></g></g></svg>