<svg xmlns="http://www.w3.org/2000/svg" viewBox="0 0 66.05 18.46"><defs><style>.cls-1,.cls-2{fill:#005a9b}.cls-2{fill-rule:evenodd}.cls-3{fill:#ce1141}</style></defs><title>arco</title><g id="Слой_2" data-name="Слой 2"><g id="Layer_1" data-name="Layer 1"><path class="cls-1" d="M63.52 4a1.13 1.13 0 1 0 1.13-1.13A1.13 1.13 0 0 0 63.52 4zm-.28 0a1.4 1.4 0 1 1 1.4 1.4 1.4 1.4 0 0 1-1.4-1.4z"/><path class="cls-2" d="M65.28 4.74v-.28a.48.48 0 0 0 0-.21.22.22 0 0 0-.12-.1.62.62 0 0 0-.19 0v-.09a.4.4 0 0 0 .21-.06.36.36 0 0 0 .07-.25.37.37 0 0 0-.14-.32.63.63 0 0 0-.37-.09H64v1.42h.31V4.2h.27a.53.53 0 0 1 .21 0 .16.16 0 0 1 .1.15v.35h.31zm-.36-1a.2.2 0 0 1-.07.17.38.38 0 0 1-.2.05h-.29v-.44h.32a.2.2 0 0 1 .24.24z"/><path class="cls-3" d="M6.6 1.52A13.43 13.43 0 0 0 4 5.54a15.12 15.12 0 0 0-.62 1.73 6.14 6.14 0 0 0-.31 2.27.59.59 0 0 0 .58.57.58.58 0 0 0 .48-.25L9.68.3a.58.58 0 0 1 .56-.3 9.66 9.66 0 0 1 2.13.47.56.56 0 0 1 .3.83L4.12 16.12a.56.56 0 0 1-.88.15 9.26 9.26 0 0 1-2-11.68A9.14 9.14 0 0 1 6 .58a.59.59 0 0 1 .64.95z"/><path class="cls-1" d="M12 16.94a13.42 13.42 0 0 0 2.56-4 15.11 15.11 0 0 0 .62-1.73 6.14 6.14 0 0 0 .31-2.27.59.59 0 0 0-.58-.57.58.58 0 0 0-.48.25l-5.54 9.55a.58.58 0 0 1-.56.29A9.66 9.66 0 0 1 6.21 18a.56.56 0 0 1-.3-.83l8.55-14.83a.56.56 0 0 1 .88-.15 9.26 9.26 0 0 1 2 11.68 9.14 9.14 0 0 1-4.7 4 .59.59 0 0 1-.64-.95z"/><path class="cls-2" d="M32.33 12.46V6.83a3.79 3.79 0 0 0-.27-1.54 2.27 2.27 0 0 0-1-1.1 4.1 4.1 0 0 0-1.27-.44 9.77 9.77 0 0 0-1.84-.15 15.32 15.32 0 0 0-2.94.3 10.41 10.41 0 0 0-1.63.44.48.48 0 0 0-.16.1.28.28 0 0 0-.08.21.62.62 0 0 0 0 .07.66.66 0 0 0 0 .1l.31 1.35a.21.21 0 0 0 .23.18h.21q.48-.13 1.41-.33a10.33 10.33 0 0 1 2-.22 6.58 6.58 0 0 1 .87 0 1.91 1.91 0 0 1 .58.16.74.74 0 0 1 .41.42 2 2 0 0 1 .08.68v.54l-3.57.57a7 7 0 0 0-1.49.35 2.46 2.46 0 0 0-1.19.91 3.38 3.38 0 0 0-.49 1.94 3.29 3.29 0 0 0 .77 2.33 3.5 3.5 0 0 0 1.88 1 11.11 11.11 0 0 0 2.35.2q.89 0 1.62-.07a11.13 11.13 0 0 0 1.29-.19 3.28 3.28 0 0 0 1.46-.64 2 2 0 0 0 .46-1.53zm-3.13.2a5 5 0 0 1-.66.14 6.64 6.64 0 0 1-1 .08 2.77 2.77 0 0 1-1.29-.24q-.63-.28-.68-1.32a1.34 1.34 0 0 1 .43-1.15 2.22 2.22 0 0 1 1-.33l2.19-.35v3.18zm5.67 1.64a.3.3 0 0 0 .09.22.34.34 0 0 0 .24.08h2.5a.34.34 0 0 0 .24-.08.3.3 0 0 0 .06-.22V6.17A8.83 8.83 0 0 1 39 6q.71-.08 1.62-.08.25 0 .31-.12a.53.53 0 0 0 .07-.27V4a.46.46 0 0 0 0-.22.3.3 0 0 0-.09-.11.53.53 0 0 0-.17-.08h-.42a22.36 22.36 0 0 0-2.31.19 10.86 10.86 0 0 0-2.15.48 1.86 1.86 0 0 0-.7.4.9.9 0 0 0-.22.66v8.98zm15.99-.47l-.27-1.25a.33.33 0 0 0-.12-.21.31.31 0 0 0-.18-.06h-.12q-.36.1-1 .21a8.4 8.4 0 0 1-1.35.12 2.48 2.48 0 0 1-2.15-.78 4.52 4.52 0 0 1-.57-2.7 4.43 4.43 0 0 1 .57-2.67 2.5 2.5 0 0 1 2.15-.77 8.41 8.41 0 0 1 1.35.12q.62.11 1 .21h.12a.33.33 0 0 0 .18-.05.3.3 0 0 0 .12-.19l.27-1.27v-.1a.33.33 0 0 0-.06-.2.49.49 0 0 0-.18-.14 5.61 5.61 0 0 0-1.38-.36 13.75 13.75 0 0 0-2.14-.17 6.57 6.57 0 0 0-3.1.64 3.37 3.37 0 0 0-1.58 1.87 9 9 0 0 0-.44 3.12 8.9 8.9 0 0 0 .44 3.11A3.37 3.37 0 0 0 44 14.17a6.58 6.58 0 0 0 3.14.62 14.1 14.1 0 0 0 2.14-.17 5 5 0 0 0 1.38-.37.54.54 0 0 0 .18-.13.29.29 0 0 0 .06-.19v-.1zm11.78-4.59a9.94 9.94 0 0 0-.32-2.88 3.47 3.47 0 0 0-1.48-2 6.31 6.31 0 0 0-3.4-.76 6.33 6.33 0 0 0-3.4.76 3.45 3.45 0 0 0-1.48 2 10 10 0 0 0-.32 2.88 9.94 9.94 0 0 0 .32 2.86 3.45 3.45 0 0 0 1.48 2 6.34 6.34 0 0 0 3.4.76 6.32 6.32 0 0 0 3.4-.76 3.46 3.46 0 0 0 1.48-2 9.85 9.85 0 0 0 .32-2.86zm-3.21 0a13.07 13.07 0 0 1-.1 2 1.83 1.83 0 0 1-.54 1.15 2.64 2.64 0 0 1-2.72 0 1.82 1.82 0 0 1-.53-1.15 13.48 13.48 0 0 1-.09-2 13.66 13.66 0 0 1 .09-2 1.82 1.82 0 0 1 .53-1.16 2.64 2.64 0 0 1 2.72 0 1.84 1.84 0 0 1 .54 1.16 13.24 13.24 0 0 1 .1 2z"/></g></g></svg>