<svg xmlns="http://www.w3.org/2000/svg" viewBox="0 0 65.59 29.55"><defs><style>.cls-1,.cls-6{fill:#294a92}.cls-1,.cls-2,.cls-3,.cls-4,.cls-5{fill-rule:evenodd}.cls-2,.cls-3{fill:#fff}.cls-3{stroke:#231f20;stroke-miterlimit:2.61;stroke-width:.01px}.cls-4{fill:#00aeef}.cls-5{fill:#f58220}</style></defs><title>atmos</title><g id="Слой_2" data-name="Слой 2"><g id="Layer_1" data-name="Layer 1"><path class="cls-1" d="M28.63 11.7a5.31 5.31 0 0 0 4.25 2 5.25 5.25 0 0 0 4.14-2h5.07l.66-1.08 14.87-.66L59.9 8l-2.21-1.61-20.12-1a5 5 0 0 0-2.11-2.15c-.1-.7-.19-1.43-.29-2.13L34.06 1l-.74-.2V0h-1v.79l-.74.2-1.12.16c-.1.7-.16 1.37-.25 2.07A5.27 5.27 0 0 0 28 5.44l-20.1 1L5.72 8 8 9.94l14.87.66.66 1.08h5.09zM33 1.35V3a5.17 5.17 0 0 1 1.84.42v-.1l-.21-1.62-.69-.1-.94-.25zm-.11-1H33V1l1 .26.9.13c.09.62.17 1.28.26 1.9v.16l.14.07a4.66 4.66 0 0 1 2 2l.1.19 20.19.93L59.4 8l-1.9 1.63-14.93.66-.66 1.07h-5.05l-.09.11a5.13 5.13 0 0 1-7.9 0l-.09-.12h-5.07l-.66-1.07-14.93-.65L6.22 8 8 6.7l20.18-.94.08-.18a5 5 0 0 1 2-2.09l.14-.07v-.16c.09-.62.13-1.22.22-1.84l.9-.13 1-.26V.31h.3zm-.3 1l-.92.25-.67.1-.22 1.63A5.18 5.18 0 0 1 32.61 3V1.35zm.18 3.46a3.34 3.34 0 1 1-3.34 3.34 3.34 3.34 0 0 1 3.34-3.34zm0-1.56a4.91 4.91 0 1 1-4.85 4.9 4.88 4.88 0 0 1 4.85-4.9zM27.65 8A4.79 4.79 0 0 1 28 6.13L8.17 7l-.33.25 3.94 1.23V7.13l4.42 1.46V7.11l4.58 1.49V6.8L27.65 8zm.35 2.15A6.34 6.34 0 0 1 27.7 9l-6.15-1.25v1.81h-.23l-4.56-1.68v1.41L12.22 7.7V9h-.42L7.55 7.52 6.81 8l1.33 1.24 19.86.91zm.16.33l-4.76-.19.47.76h4.7a4 4 0 0 1-.41-.6zm9.27 0l4.76-.16-.47.76H37a3.94 3.94 0 0 0 .41-.6zm.14-.35A6 6 0 0 0 37.88 9L44 7.75v1.81h.23l4.57-1.74v1.47l4.6-1.59v1.33l.31-.03 4.37-1.38.64.5-1.35 1.14-19.79.87zM37.94 8a5.05 5.05 0 0 0-.38-1.9l19.79.9.42.33-4 1.21v-1.4l-4.39 1.54V7.17l-4.55 1.5V6.88L37.94 8z"/><path class="cls-2" d="M35.71 10.91l.09-.08.1-.11a.09.09 0 0 0 0-.06.12.12 0 0 0 0-.06h-.13l-.09.08-.09.09.15.16zm.23.47l-.59-.61.24-.23a.54.54 0 0 1 .15-.11.19.19 0 0 1 .12 0 .26.26 0 0 1 .12.07.24.24 0 0 1 .07.15.24.24 0 0 1-.06.17h.27l.18.05-.14.13h-.47l.25.26-.12.11zm-1 .42l-.23-.24v.33l.2-.09zm.4.19l-.16.07-.18-.15-.29.13v.2l-.15.07-.06-.9.15-.07.63.65zm-2.16.7l-.11-.82h.17v.37l.29-.39h.22l-.27.34.39.48h-.21l-.28-.37-.12.15v.25zm-1.52-.11l.06-.85h.16l.29.59v-.57h.15l-.06.85h-.17l-.25-.6v.56zm-1-.78v-.32l-.24.23.2.09zm.12.42l-.16-.07v-.2l-.29-.14-.15.14-.15-.07.67-.61.15.07-.1.88zm-1-1.31l-.16-.11a.15.15 0 0 0 0-.1.13.13 0 0 0 0-.09.14.14 0 0 0-.12 0 .29.29 0 0 0-.16.09.34.34 0 0 0-.11.17.14.14 0 0 0 0 .13.12.12 0 0 0 .09 0 .21.21 0 0 0 .12 0l.1.16a.37.37 0 0 1-.23.06.33.33 0 0 1-.21-.11.32.32 0 0 1-.1-.26.53.53 0 0 1 .44-.42.33.33 0 0 1 .26.11.33.33 0 0 1 .1.2.35.35 0 0 1-.06.21zm5-6.32a.39.39 0 0 0-.14.2.2.2 0 0 0 .21.23.43.43 0 0 0 .22-.13.36.36 0 0 0 .13-.19.19.19 0 0 0-.05-.16.18.18 0 0 0-.16-.06.39.39 0 0 0-.21.12zm-.21-.23a.59.59 0 0 1 .4-.18.5.5 0 0 1 .37.18.51.51 0 0 1 .16.39.58.58 0 0 1-.21.38.72.72 0 0 1-.27.17.45.45 0 0 1-.26 0 .54.54 0 0 1-.24-.16.61.61 0 0 1-.15-.25.44.44 0 0 1 0-.26.66.66 0 0 1 .19-.27zm1.63 1.78l.09.28a.26.26 0 0 0-.11.07.16.16 0 0 0 0 .15.15.15 0 0 0 .06.09.11.11 0 0 0 .08 0 .1.1 0 0 0 .07-.05.38.38 0 0 0 0-.17.65.65 0 0 1 .06-.32.28.28 0 0 1 .18-.14.3.3 0 0 1 .17 0 .31.31 0 0 1 .15.1.59.59 0 0 1 .1.23.48.48 0 0 1 0 .31.34.34 0 0 1-.21.18l-.09-.28a.18.18 0 0 0 .09-.07.15.15 0 0 0 0-.11.12.12 0 0 0 0-.07.08.08 0 0 0-.07 0 .24.24 0 0 0 0 .11 1.24 1.24 0 0 1 0 .31.32.32 0 0 1-.09.15.33.33 0 0 1-.15.08.36.36 0 0 1-.2 0 .34.34 0 0 1-.17-.11.57.57 0 0 1-.1-.22.48.48 0 0 1 0-.37.44.44 0 0 1 .24-.18zm-4.09-2.6h.41l.16.66.16-.66h.41v1.09H33V3.8l-.2.83h-.23l-.2-.83v.83h-.26V3.54zm1.27-1.05c0 .23.07.3.13.34a.55.55 0 0 0 .36.1.6.6 0 0 0 .3-.08.31.31 0 0 0 .15-.2.6.6 0 0 0 0-.14H34c0 .12 0 .21-.16.21s-.17-.12-.17-.18V2.1a.14.14 0 0 1 .07-.1.2.2 0 0 1 .12 0c.15 0 .16.12.16.18h.31a.36.36 0 0 0-.14-.31.59.59 0 0 0-.31-.08c-.32 0-.49.15-.49.41v.34zm-2 .07a.54.54 0 0 0 0 .06.27.27 0 0 0 .15.29.53.53 0 0 0 .24 0 .57.57 0 0 0 .22 0 .25.25 0 0 0 .16-.24v-.89h-.31v.86c0 .06 0 .1-.1.1s-.1-.07-.1-.19zm-2.11 4h-.39l.3.24.09-.2zm.23 0l-.14.32.14.11-.13.29-.81-.73.13-.31h1.11l-.13.3h-.18zm.27-1.88l.79-.51.14.21-.26.17.44.64-.26.17-.44-.64-.26.17-.14-.21z"/><path class="cls-3" d="M35.4 6.7l-2.46 1.5v2.93A3 3 0 0 0 35.4 6.7z"/><path class="cls-4" d="M30.3 6.49l2.32 1.45h.32l2.35-1.43a3 3 0 0 0-5 0z"/><path class="cls-5" d="M32.62 11.14V8.2l-2.45-1.5a3 3 0 0 0 2.45 4.43z"/><path class="cls-6" d="M57.93 25.19a6.14 6.14 0 0 0 1.5 1.28 2.9 2.9 0 0 0 1.47.43 1.68 1.68 0 0 0 1.1-.37 1.15 1.15 0 0 0 .44-.93 1.21 1.21 0 0 0-.38-1 4.81 4.81 0 0 0-1.71-.6 5.61 5.61 0 0 1-2.59-1.28A3 3 0 0 1 57 20.5a3.83 3.83 0 0 1 1.2-2.92 4.33 4.33 0 0 1 3.1-1.13 6.82 6.82 0 0 1 2 .28 6.37 6.37 0 0 1 1.75.84L63.94 20a4.51 4.51 0 0 0-1.19-.75 3.17 3.17 0 0 0-1.2-.25 1.6 1.6 0 0 0-1 .29.91.91 0 0 0-.38.75.93.93 0 0 0 .34.75 3.62 3.62 0 0 0 1.3.54h.15a6.32 6.32 0 0 1 2.73 1.23 3 3 0 0 1 .67 1.1 4.18 4.18 0 0 1 .23 1.42 4.13 4.13 0 0 1-1.3 3.19 4.9 4.9 0 0 1-3.47 1.21 6.16 6.16 0 0 1-2.37-.44 6.75 6.75 0 0 1-2.06-1.39l1.53-2.53zm-10.24 1.48a3 3 0 0 0 2.34-1 3.81 3.81 0 0 0 .92-2.67 3.78 3.78 0 0 0-.95-2.6 3.12 3.12 0 0 0-4.66 0 3.8 3.8 0 0 0-.91 2.6 3.82 3.82 0 0 0 .91 2.63 3 3 0 0 0 2.35 1zM54.34 23a6.34 6.34 0 0 1-1.93 4.62A6.84 6.84 0 0 1 50.23 29a6.8 6.8 0 0 1-5.1 0A6.54 6.54 0 0 1 43 27.63a6.33 6.33 0 0 1-1.46-2.11A6.38 6.38 0 0 1 43 18.39 6.54 6.54 0 0 1 45.13 17a6.83 6.83 0 0 1 5.11 0 6.61 6.61 0 0 1 2.17 1.42A6.37 6.37 0 0 1 54.34 23zm-15.5 6.2h-3.17l-.73-5.39c0-.38-.1-.8-.14-1.27s-.08-1-.12-1.52a15.15 15.15 0 0 1-.47 2l-.11.37-1.69 5.84h-2.26l-1.69-5.84-.1-.37a13.56 13.56 0 0 1-.47-2c0 .47-.08.94-.12 1.4s-.1.92-.16 1.39l-.73 5.39h-3.17l1.92-12.46H29l1.88 6.42.07.22a8.25 8.25 0 0 1 .33 1.47 5.85 5.85 0 0 1 .12-.74c.06-.27.15-.59.26-1l1.9-6.41h3.37l1.91 12.46zM16 29.21V19.7h-2.81v-2.94h9v2.94h-2.82v9.51zm-16 0l4.3-12.45h4.25l4.3 12.46H9.48L8.85 27H4l-.65 2.23zm4.76-4.66h3.38l-1.27-4.1c0-.12-.09-.33-.16-.6l-.26-1.07c-.07.31-.15.6-.22.88s-.14.54-.21.8l-1.26 4.1z"/></g></g></svg>