<svg id="Layer_1" data-name="Layer 1" xmlns="http://www.w3.org/2000/svg" viewBox="0 0 95.677 32.27"><defs><style>.cls-1{fill:#0055a4}.cls-2{fill:#fff}</style></defs><title>cersanit</title><path class="cls-1" d="M568.4 399.07h-.14a2.755 2.755 0 0 0-2.508 2.688h5.036a2.4 2.4 0 0 0-2.388-2.688zm27.042 5.935c0 1.232.978 1.611 2.073 1.771a14.877 14.877 0 0 0 1.932.1v-3.923a10.066 10.066 0 0 0-1.932.158c-1.197.24-2.073.798-2.073 1.894z" transform="translate(-542.866 -379.757)"/><path class="cls-1" d="M636.148 379.757H545.39a2.523 2.523 0 0 0-2.524 2.116v27.916a2.4 2.4 0 0 0 2.524 2.238h90.758a2.625 2.625 0 0 0 2.395-1.58v-29.012a2.309 2.309 0 0 0-2.395-1.678zm-74.742 19.99a5.126 5.126 0 0 0-2.129-.4 3.555 3.555 0 0 0 0 7.109 5.892 5.892 0 0 0 2.129-.356v2.19a9.289 9.289 0 0 1-2.687.4c-3.582 0-5.918-2.234-5.918-5.66 0-3.284 2.371-5.852 6.393-5.852a8.369 8.369 0 0 1 2.212.3v2.272zm12.011 3.942h-7.668a2.807 2.807 0 0 0 2.508 2.769 5.762 5.762 0 0 0 1.015.1 8.929 8.929 0 0 0 3.071-.477v2.067a11.174 11.174 0 0 1-3.467.523h-.619a5.275 5.275 0 0 1-5.3-5.577c0-2.969 1.836-5.778 5.3-5.936h.321c3.723 0 4.916 2.946 4.916 5.376a7.849 7.849 0 0 1-.077 1.155zm8.245-4.083c-2.93-.517-3.211.4-3.211 2.53v6.491h-2.9v-7.547a3.534 3.534 0 0 1 2.172-3.606 6.335 6.335 0 0 1 3.944 0v2.132zm4.759 9.084a8.922 8.922 0 0 1-3.068-.578v-2.274a7.592 7.592 0 0 0 3.087.819c1.276 0 1.838-.5 1.838-1.213 0-.759-.46-1.14-1.879-1.616-2.229-.736-3.184-1.912-3.147-3.206 0-1.952 1.438-3.466 4.083-3.466a6.559 6.559 0 0 1 2.694.617v2.072a5.289 5.289 0 0 0-2.39-.7c-1.06 0-1.614.457-1.614 1.157s.538 1.036 2.009 1.533c2.052.716 3.028 1.732 3.05 3.365 0 1.994-1.616 3.49-4.663 3.49zm-1-16.731h-.017c1.47-1.255 4.958-2.071 9-1.972.7.021 1.393.059 2.052.14.219.019.459.04.7.04h.32a.524.524 0 0 0 .418-.158.491.491 0 0 0-.342-.421 10.735 10.735 0 0 0-15.849 6.135h-.043a11.9 11.9 0 0 1 7.014-10.833.477.477 0 0 0 .156-.618c-.011 0-.011 0-.008.007s0-.007.008-.007a11.256 11.256 0 0 0-.872-1.293c0-.021-.02-.059-.02-.079a.625.625 0 0 1 .574-.039 5.593 5.593 0 0 1 2.511 1.095 3.522 3.522 0 0 0 1.474.637 13.321 13.321 0 0 1 5.076 2.01 5.16 5.16 0 0 1 1.416 1.397 2.059 2.059 0 0 1 .357 1.195 2.8 2.8 0 0 1-.019.4.515.515 0 0 0 .2.518 1.053 1.053 0 0 1 .539 1.039.68.68 0 0 1-.582.237 6.309 6.309 0 0 1-1.094-.08c-.557-.078-1.115-.138-1.693-.219-.993-.1-1.992-.2-2.97-.274-.533-.046-1.073-.046-1.629-.046a16.089 16.089 0 0 0-6.672 1.189zm16.851 16.668h-3.767c-4.338 0-5.754-1.751-5.754-3.782 0-2.131 1.749-3.308 4.76-3.6a15.177 15.177 0 0 1 1.932-.08v-.185a1.814 1.814 0 0 0-1.932-1.834 3.4 3.4 0 0 0-.476-.036 6.514 6.514 0 0 0-3.027.775v-2.071a9.373 9.373 0 0 1 3.5-.657h.02c3.681 0 4.741 2.169 4.741 4.56v6.909zm12.763 0h-2.828V402.3c0-1.614-.834-2.912-2.367-2.888a3.035 3.035 0 0 0-2.013.615l-.04 2.032v6.57h-2.825v-7.863l-.024-2.511a22.759 22.759 0 0 1 6.117-1.1c1.93.078 3.981 1.274 3.981 4.822v6.647zm5.616 0h-2.923v-11.47h2.923v11.47zm-1.469-12.9a1.519 1.519 0 0 1-1.615-1.535 1.623 1.623 0 0 1 3.245 0 1.525 1.525 0 0 1-1.626 1.532zm9.559 3.764h-2.568v4.759c0 1.375.352 2.091 1.47 2.091a3.258 3.258 0 0 0 1.1-.137v2.169a5.831 5.831 0 0 1-2.014.3 3.311 3.311 0 0 1-2.488-.958 4.37 4.37 0 0 1-.9-3.146v-10.28h2.832v2.868h2.568v2.331z" transform="translate(-542.866 -379.757)"/><path class="cls-2" d="M611.058 397.158a22.759 22.759 0 0 0-6.117 1.1l.024 2.511v7.863h2.825v-6.57l.04-2.032a3.035 3.035 0 0 1 2.013-.615c1.533-.024 2.367 1.274 2.367 2.888v6.329h2.828v-6.652c.001-3.548-2.05-4.744-3.98-4.822z" transform="translate(-542.866 -379.757)"/><path class="cls-2" d="M74.866 17.4h2.923v11.47h-2.923z"/><path class="cls-2" d="M626.178 394.289h-2.832v10.278a4.37 4.37 0 0 0 .9 3.146 3.311 3.311 0 0 0 2.488.958 5.831 5.831 0 0 0 2.014-.3V406.2a3.258 3.258 0 0 1-1.1.137c-1.118 0-1.47-.716-1.47-2.091v-4.759h2.568v-2.331h-2.568v-2.868zm-28.643 2.869h-.02a9.373 9.373 0 0 0-3.5.657v2.071a6.514 6.514 0 0 1 3.027-.775 3.4 3.4 0 0 1 .476.036 1.814 1.814 0 0 1 1.932 1.834v.181a15.177 15.177 0 0 0-1.932.08c-3.01.3-4.76 1.473-4.76 3.6 0 2.031 1.416 3.782 5.754 3.782h3.767v-6.909c-.003-2.387-1.063-4.557-4.744-4.557zm1.912 9.718a14.877 14.877 0 0 1-1.932-.1c-1.095-.16-2.073-.539-2.073-1.771 0-1.1.876-1.654 2.073-1.893a10.066 10.066 0 0 1 1.932-.158v3.923zm-21.729-9.401a3.534 3.534 0 0 0-2.172 3.606v7.547h2.9v-6.491c0-2.133.28-3.047 3.211-2.53v-2.132a6.335 6.335 0 0 0-3.939 0zM552.8 403.03c0 3.426 2.335 5.66 5.918 5.66a9.289 9.289 0 0 0 2.687-.4v-2.19a5.892 5.892 0 0 1-2.129.356 3.555 3.555 0 0 1 0-7.109 5.126 5.126 0 0 1 2.129.4v-2.272a8.369 8.369 0 0 0-2.212-.3c-4.021.003-6.393 2.572-6.393 5.855zm35.234-1.191c-1.471-.5-2.009-.837-2.009-1.533s.555-1.157 1.614-1.157a5.289 5.289 0 0 1 2.39.7v-2.072a6.559 6.559 0 0 0-2.694-.617c-2.645 0-4.083 1.514-4.083 3.466-.037 1.293.918 2.47 3.147 3.206 1.419.477 1.879.857 1.879 1.616 0 .715-.562 1.213-1.838 1.213a7.592 7.592 0 0 1-3.087-.819v2.274a8.922 8.922 0 0 0 3.068.578c3.047 0 4.663-1.5 4.663-3.486-.023-1.638-.998-2.653-3.05-3.369zm-19.456-4.681h-.321c-3.464.158-5.3 2.967-5.3 5.936a5.275 5.275 0 0 0 5.3 5.577h.619a11.174 11.174 0 0 0 3.467-.523v-2.067a8.929 8.929 0 0 1-3.071.477 5.762 5.762 0 0 1-1.015-.1 2.807 2.807 0 0 1-2.508-2.769h7.668a7.849 7.849 0 0 0 .078-1.154c0-2.435-1.195-5.377-4.917-5.377zm-2.83 4.6a2.755 2.755 0 0 1 2.508-2.688h.14a2.4 2.4 0 0 1 2.388 2.688h-5.036zm53.438-9.158a1.556 1.556 0 0 0-1.615 1.592 1.625 1.625 0 0 0 3.245 0 1.561 1.561 0 0 0-1.63-1.592zm-22.486-1.518c.578.08 1.136.141 1.693.219a6.309 6.309 0 0 0 1.094.08.68.68 0 0 0 .582-.237 1.053 1.053 0 0 0-.539-1.039.515.515 0 0 1-.2-.518 2.8 2.8 0 0 0 .019-.4 2.059 2.059 0 0 0-.357-1.195 5.16 5.16 0 0 0-1.416-1.394 13.321 13.321 0 0 0-5.076-2.01 3.522 3.522 0 0 1-1.474-.637 5.593 5.593 0 0 0-2.511-1.095.625.625 0 0 0-.574.039c0 .02.02.058.02.079a11.256 11.256 0 0 1 .872 1.293.477.477 0 0 1-.156.618 11.9 11.9 0 0 0-7.014 10.833h.037a10.735 10.735 0 0 1 15.849-6.135.491.491 0 0 1 .342.421.524.524 0 0 1-.418.158h-.32c-.236 0-.476-.021-.7-.04a22.54 22.54 0 0 0-2.052-.14c-4.043-.1-7.53.716-9 1.972h.017a16.089 16.089 0 0 1 6.674-1.2c.556 0 1.1 0 1.629.046.985.083 1.985.184 2.979.282z" transform="translate(-542.866 -379.757)"/></svg>