<svg xmlns="http://www.w3.org/2000/svg" viewBox="0 0 85.91 20.64"><defs><style>.cls-1{fill:#c1272d}</style></defs><title>drazice</title><g id="Слой_2" data-name="Слой 2"><g id="Layer_1" data-name="Layer 1"><path class="cls-1" d="M8.85 19.65a7.91 7.91 0 1 1 7.91-7.91 7.91 7.91 0 0 1-7.91 7.91m0-16.76a8.85 8.85 0 1 0 8.85 8.85 8.85 8.85 0 0 0-8.85-8.85"/><path class="cls-1" d="M4.4 13.17v-2.73h4.54L7 13.17zm7.78-2.73a1.37 1.37 0 0 1 0 2.73h-3.4l1.92-2.73zm-3.27 4.15h3.34a2.72 2.72 0 0 0 2.64-2.79A2.72 2.72 0 0 0 12.25 9h-.56l1.79-2.55H3.87v1.44h6.89L10 9H3v5.57h3l-2 2.74h9.38v-1.39H6.85l.93-1.33zm15.36-1.81a5.35 5.35 0 0 0 2.92-.59A3.75 3.75 0 0 0 29 8.94a3.92 3.92 0 0 0-1.87-3.4A5.69 5.69 0 0 0 24.24 5h-.43v7.8zM21.6 2.92h2.71a8.3 8.3 0 0 1 4.22.91 5.93 5.93 0 0 1 2.65 5.09 5.82 5.82 0 0 1-3 5.22 8.28 8.28 0 0 1-3.84.71H21.6V2.92zm14.73 5.7c1.34 0 2.14-.69 2.14-1.83S37.63 5 36.34 5h-1.42v3.62zm-3.61-5.7h3.65a4.24 4.24 0 0 1 3 .91 3.64 3.64 0 0 1 1.26 2.78 4 4 0 0 1-1.25 2.94 3.75 3.75 0 0 1-1.87.89l3.22 4.41h-2.62l-3.19-4.56v4.56h-2.21V2.92zM49 9.7L47.67 6l-1.28 3.7zm-2.2-6.78h1.73l5 11.93h-2.44l-1.26-3.08h-4.24l-1.32 3.08h-2.43l5-11.93zm12.4 2.07h-4.33V2.92h6.89v1.92l-4.52 7.94h4.84v2.07h-7.46v-1.82l4.58-8.04zm4.42-2.07h2.21v11.93h-2.21V2.92zM78 11.54a5.42 5.42 0 0 1-5 3.54c-3.07 0-5.61-2.83-5.61-6.25s2.51-6.14 5.58-6.14a5.24 5.24 0 0 1 3.54 1.39A5.17 5.17 0 0 1 78 6.32h-2.24a3.59 3.59 0 0 0-2.89-1.57c-1.88 0-3.5 1.89-3.5 4.11S71 13 72.94 13a3.34 3.34 0 0 0 2.7-1.48zm1.48-8.62h6.43v2.07h-4.22v2.9h4.04v2.06h-4.04v2.83h4.22v2.07h-6.43V2.92zm-56.83 14l.34.29.34-.29h.34l-.56.49h-.26l-.56-.49zm1.67 2.91a1.52 1.52 0 0 1-1.33.81 1.49 1.49 0 1 1 .94-2.64 1.21 1.21 0 0 1 .38.46H24a1.22 1.22 0 0 0-1-.53 1.24 1.24 0 0 0 0 2.47 1.27 1.27 0 0 0 .72-.25 1.33 1.33 0 0 0 .29-.31zm2.23-2.13h.29v2.63h1.19v.26h-1.48V17.7zm3.68 0h1.58v.26h-1.29V19h1.25v.25h-1.25v1.08h1.29v.26h-1.58V17.7zm3.9 0h.39l1.62 2.39V17.7h.29v2.89h-.29l-1.72-2.54v2.54h-.29V17.7zm7.68 2.08a.69.69 0 0 0 .13.39.61.61 0 0 0 .46.22.59.59 0 0 0 .6-.59.54.54 0 0 0-.2-.41 1 1 0 0 0-.45-.19 1.07 1.07 0 0 1-.55-.25.73.73 0 0 1-.2-.52.81.81 0 0 1 1.61 0h-.3a.53.53 0 0 0-.53-.52.5.5 0 0 0-.5.51.46.46 0 0 0 .14.33 1.19 1.19 0 0 0 .43.18 1.18 1.18 0 0 1 .54.23.82.82 0 0 1 .29.63.87.87 0 0 1-.88.85.86.86 0 0 1-.9-.86zm3.74-2.08h.29v1.66l1.32-1.66h.37l-1.14 1.41 1.14 1.48h-.36l-.96-1.25-.37.45v.8h-.29V17.7zm4.45 0v1.8c0 .53.26.86.69.86s.69-.33.69-.86v-1.8h.29v1.8a1.23 1.23 0 0 1-.21.77 1 1 0 0 1-.77.37 1 1 0 0 1-.77-.37 1.21 1.21 0 0 1-.22-.77v-1.8zm4.86 1.46a.91.91 0 0 0 .54-.16.57.57 0 0 0 .25-.48.55.55 0 0 0-.34-.53 1.11 1.11 0 0 0-.58-.08h-.42v1.2zM54 17.7h.8a1.27 1.27 0 0 1 .75.17.82.82 0 0 1 .36.7.81.81 0 0 1-.31.65 1.13 1.13 0 0 1-.73.2h-.59v1.17H54V17.7zm4.17 0h.28v2.89h-.28V17.7zm2.72 0h.39l1.62 2.39V17.7h.29v2.89h-.29l-1.73-2.54v2.54h-.28V17.7zm5.42 1.92l-1-1.92h.31l.83 1.62.84-1.62h.32l-1.01 1.92v.97h-.29v-.97zm6.31-1.92h.39l1.62 2.39V17.7h.29v2.89h-.29l-1.72-2.54v2.54h-.29V17.7zm4.72 0h.29v2.89h-.29V17.7zm3.42 2.63a1.31 1.31 0 0 0 .54-.08.56.56 0 0 0 .31-.49.54.54 0 0 0-.34-.49 1.46 1.46 0 0 0-.56-.06h-.35v1.12zm0-1.38a1 1 0 0 0 .5-.09.48.48 0 0 0 .23-.4.49.49 0 0 0-.19-.37.8.8 0 0 0-.52-.12h-.39v1zm-.65-1.24h.72a1 1 0 0 1 .67.19.73.73 0 0 1 .28.58.67.67 0 0 1-.32.58.75.75 0 0 1 .48.71.79.79 0 0 1-.34.66 1.2 1.2 0 0 1-.77.17h-.73v-2.9zm4.06-.01h1.58v.26h-1.29V19h1.25v.25h-1.25v1.08h1.29v.26h-1.58V17.7zM57.73 0l.91 1.03.8-1.03h2.35l-2.15 2.23h-1.93L55.4 0h2.33z"/></g></g></svg>