<svg id="Layer_1" data-name="Layer 1" xmlns="http://www.w3.org/2000/svg" viewBox="0 0 59.19 29.04"><defs><style>.cls-1{fill:#f58220}.cls-2{fill:#231f20}</style></defs><title>Artboard 1</title><g id="Слой_2" data-name="Слой 2"><g id="Layer_1-2" data-name="Layer 1"><path class="cls-1" d="M23.49 0a25.77 25.77 0 0 1 4 .61l.06.06A25.67 25.67 0 0 1 38.44 6 15.37 15.37 0 0 1 41 8.65h-.11a25.47 25.47 0 0 0-17.38-5.16c-3.46.45-7 1.64-8.87 5a10.66 10.66 0 0 1-2.06-5.27 11.26 11.26 0 0 1 6.19-3l1.7-.22h3z"/><path class="cls-2" d="M9.51 7.42l-4.13.06a1.53 1.53 0 0 0-1.26.75 10.17 10.17 0 0 0-.28 3.43l.06.08h4.6v2.54H3.91l-.06.06V29H0V9.29c.08-1.46.57-3.08 2.09-3.6A8.82 8.82 0 0 1 4 5.33h5.51zM52.69 22a1 1 0 0 0 .45.67 2.22 2.22 0 0 0 .92.14v2h-2.87a2.34 2.34 0 0 1-1.76-1.14 3.26 3.26 0 0 1-.33-1.23v-17h3.6V22zm6.5-13.35l-3.6.03-.02-3.32.02-.03h3.6v3.32zM28.23 10v3.06a4.75 4.75 0 0 0-3.38-.06l-.11.11v11.63h-3.6V9.87h3a2.26 2.26 0 0 0 .25.67 3.88 3.88 0 0 1 3.84-.54zm8.31 0v3.06a4.62 4.62 0 0 0-3.43-.06l-.06.06v11.65h-3.6V9.84h3a3.72 3.72 0 0 0 .22.64c.19-.05.32-.25.5-.33a4 4 0 0 1 3.4-.22zm22.65 14.74h-3.6l-.02-14.81.02-.06h3.6v14.87zM46.08 11.6l.08-.06a4.45 4.45 0 0 0-5.58-1.65c-2.07.8-2.72 2.91-3 4.8a17.07 17.07 0 0 0 .53 7.14 4.3 4.3 0 0 0 3.51 3A4.39 4.39 0 0 0 46 23c1.17-1.88 1.17-4.26 1.17-6.61a10.91 10.91 0 0 0-1.09-4.79zm-2.77 4.46v4.07c-.14.86 0 1.92-.78 2.43a.86.86 0 0 1-.84-.2 1.44 1.44 0 0 1-.36-.86l-.11-1.59-.06-3.57a15.25 15.25 0 0 1 .33-3.93.86.86 0 0 1 1.16-.41.82.82 0 0 1 .35.34 15.18 15.18 0 0 1 .31 3.72zm-23.9 1.4c0-2.26.07-4.54-1.06-6.33v.07A3.18 3.18 0 0 0 17 10.08a4.63 4.63 0 0 0-5 1c-1.57 1.83-1.85 4.44-1.7 6.83s.32 4.84 2.32 6.39a5.26 5.26 0 0 0 5.1 0A3.45 3.45 0 0 0 19 21.15h-2.5a2.66 2.66 0 0 1-.2 1 1.08 1.08 0 0 1-1.12.47 1.16 1.16 0 0 1-.84-.75 21.14 21.14 0 0 1-.34-4.35l.06-.06zm-5.07-5A.87.87 0 0 1 15 12a1.21 1.21 0 0 1 .94.25 2.46 2.46 0 0 1 .41 1.42c0 .56.08 1.1.06 1.67-.74.05-1.52 0-2.29 0l-.06-.06a10.5 10.5 0 0 1 .28-2.85z"/></g></g></svg>