<svg xmlns="http://www.w3.org/2000/svg" viewBox="0 0 96.28 13.24"><defs><style>.cls-1,.cls-2{fill:#231f20}.cls-1{fill-rule:evenodd}.cls-3{fill:#0071ba}</style></defs><title>geberit</title><g id="Слой_2" data-name="Слой 2"><g id="Layer_1" data-name="Layer 1"><path class="cls-1" d="M28.89 12.66a17.41 17.41 0 0 1-5 .59c-3.39 0-7.37-1.69-7.37-6.52S20 0 24.66 0a11.37 11.37 0 0 1 3.91.59v2.8a8.09 8.09 0 0 0-3.39-.85c-2.81 0-5.09 1.17-5.09 4.17a4 4 0 0 0 4.31 4 3.41 3.41 0 0 0 1.24-.26V8h-2V5.54h5.28v7.11M31.83.2h9.01v2.47h-5.62v2.61h5.29V7.7h-5.29v2.93h5.81v2.42h-9.2V.2zM47 2.67h1c1.18 0 2.28.07 2.28 1.24S49.12 5.28 48 5.28h-1V2.67zM43.64 13h5.41c2.29 0 5-.65 5-3.72 0-1.57-.85-2.48-2.61-2.8v-.02a2.91 2.91 0 0 0 2.28-3C53.68 1.3 51.93.2 49.51.2h-5.87V13zM47 7.63h1c1.17 0 2.54.13 2.54 1.5s-1.3 1.5-2.54 1.5h-1v-3M56.49.2h9.07v2.47h-5.61v2.61h5.28V7.7h-5.28v2.93h5.8v2.42h-9.26V.2zM68.3 13h3.46V8h.72c1.24 0 1.7.59 2.35 2.8l.77 2.2h3.53l-1.25-3.41C77.24 8 77.17 7 76.06 6.72a3 3 0 0 0 2.48-3.26c0-2.22-1.82-3.26-4.11-3.26H68.3V13zm3.46-10.32h.85c1.3 0 2.55.2 2.55 1.37 0 1.5-1.44 1.5-2.55 1.5h-.85V2.68"/><path class="cls-2" d="M81.28 13.05h3.46V.2h-3.46v12.85z"/><path class="cls-1" d="M89.76 2.74h-3.19V.2h9.71v2.54h-3.13v10.31h-3.39V2.74z"/><path class="cls-3" d="M0 13.05h12.85V.2H0v12.85z"/></g></g></svg>