<svg xmlns="http://www.w3.org/2000/svg" viewBox="0 0 69.5 29.52"><defs><style>.cls-1,.cls-2{fill:#142c52}.cls-2{fill-rule:evenodd}</style></defs><title>grohe</title><g id="Слой_2" data-name="Слой 2"><g id="Layer_1" data-name="Layer 1"><path class="cls-1" d="M67.55 18.39a14.31 14.31 0 0 1-2.38.25 19.85 19.85 0 0 1-5.83-1.19L56 16.32a22.24 22.24 0 0 0-5.84-1.09 22.31 22.31 0 0 0-5.83 1.09L41 17.46a19.86 19.86 0 0 1-5.84 1.19 19.87 19.87 0 0 1-5.84-1.19L26 16.32a22.25 22.25 0 0 0-5.83-1.09 22.27 22.27 0 0 0-5.83 1.09L11 17.46a19.85 19.85 0 0 1-5.83 1.19 14.32 14.32 0 0 1-2.38-.25l.14.23a7.3 7.3 0 0 0 .92 1.26 7.83 7.83 0 0 0 1.29.1A21.28 21.28 0 0 0 11 18.86l3.34-1.13a19.69 19.69 0 0 1 5.83-1.19 18.92 18.92 0 0 1 5 .92l4.17 1.39A21.34 21.34 0 0 0 35.17 20 21.33 21.33 0 0 0 41 18.86l4.17-1.39a18.92 18.92 0 0 1 5-.92A19.68 19.68 0 0 1 56 17.74l3.34 1.13A21.28 21.28 0 0 0 65.2 20a7.93 7.93 0 0 0 1.29-.1 7.75 7.75 0 0 0 .92-1.26l.14-.23z"/><path class="cls-1" d="M62.58 23.09l-4.86-1.49c-2.18-.67-3-.91-4.19-1.16a16.73 16.73 0 0 0-3.36-.44 22.66 22.66 0 0 0-5.83 1.09L41 22.22a19.61 19.61 0 0 1-5.85 1.19 19.49 19.49 0 0 1-5.85-1.19L26 21.09A22.73 22.73 0 0 0 20.13 20a16.79 16.79 0 0 0-3.36.43c-1.15.25-2.06.51-4.19 1.16l-4.86 1.5a8.21 8.21 0 0 0 1.24 1l2.7-.82 2.23-.66.89-.26a19.21 19.21 0 0 1 5.35-1 19.14 19.14 0 0 1 5 .92l4.17 1.4a21.32 21.32 0 0 0 5.85 1.12A21.42 21.42 0 0 0 41 23.63l4.17-1.4a19.24 19.24 0 0 1 5-.92 19.18 19.18 0 0 1 5.35 1l.89.26 2.23.66 2.7.82a8.94 8.94 0 0 0 1.24-1z"/><path class="cls-1" d="M57.14 26.25l-.31-.11-.83-.28a21.32 21.32 0 0 0-5.84-1.09 20.66 20.66 0 0 0-5 .85l-.83.25-.84.28-.83.29-.83.28L41 27a19.49 19.49 0 0 1-5.84 1.19 18.38 18.38 0 0 1-5-.92l-.83-.27-.83-.28-.83-.28-.83-.29-.84-.29a21.32 21.32 0 0 0-5.83-1.09 20.66 20.66 0 0 0-5 .85l-.83.25c-.59.19-.71.23-1.14.39l1.68.87.38-.12a17.65 17.65 0 0 1 4.93-.92 17.1 17.1 0 0 1 4.16.68l.83.24.83.27.84.28.83.29.83.28.83.28a20.6 20.6 0 0 0 5.84 1.12 19.56 19.56 0 0 0 5-.87l.82-.26.83-.28.83-.28.83-.29.84-.28.83-.27a18 18 0 0 1 5-.92 17.65 17.65 0 0 1 4.92.92l.38.12 1.68-.87zM9.5 6.54v3.65a6.41 6.41 0 0 1-2.5.52 3.68 3.68 0 0 1-3.64-4 4.15 4.15 0 0 1 4.38-4.3 9.84 9.84 0 0 1 4.6 1.29V1.28A11.46 11.46 0 0 0 7.4.12C2.89.12 0 2.67 0 6.67 0 10.48 2.8 13 7 13a12.14 12.14 0 0 0 5.72-1.55V6.54zM15.41.47v12.18h3.18V2.77H20c1.8 0 2.6.57 2.6 1.85s-.9 2-2.48 2H19l4.42 6h4.08l-4.05-4.9a3.62 3.62 0 0 0 2.31-3.47c0-2.58-1.67-3.82-5.16-3.82zm29.58 0v12.18h3.18v-5.2h5.62v5.2h3.18V.47h-3.18v4.51h-5.62V.47h-3.18zm15.37 0v12.18h9.14v-2.38h-5.97v-2.9h4.39V5.08h-4.39V2.86h5.28V.47h-8.45z"/><path class="cls-2" d="M31.09 6.57a4.14 4.14 0 1 1 8.29 0 4.14 4.14 0 1 1-8.29 0zm-3.35 0c0 3.78 3.17 6.56 7.49 6.56s7.49-2.78 7.49-6.56S39.56 0 35.23 0s-7.49 2.77-7.49 6.57z"/></g></g></svg>