<svg xmlns="http://www.w3.org/2000/svg" viewBox="0 0 101.06 32.89"><defs><style>.cls-1{fill:#231f20}</style></defs><title>haceka</title><g id="Слой_2" data-name="Слой 2"><path class="cls-1" d="M50.45 30.95h-8.32v-1.43h8.32v1.43zm-26.57-4.64h-3.44v-8.23H12.6v8.23H9.16V8.06h3.44v6.84h7.84V8.06h3.43v18.25zM18.11 0v12.56h-3.18V0a16.52 16.52 0 0 0 0 32.89V20.38h3.18v12.51a16.52 16.52 0 0 0 0-32.89m23.96 2.07h2.27v4.77a3.3 3.3 0 0 1 2.7-1.15c1.6 0 3.44.67 3.44 3.41v6.23h-2.23V9.74c0-1.3-.52-1.86-1.67-1.86-1.71 0-2.23 1.45-2.23 2.61v4.84h-2.28V2.07zm16.29 8.55a4.11 4.11 0 0 1-1.08.33l-1.28.26c-.86.17-1.56.41-1.56 1.3 0 .71.65 1.17 1.47 1.17 1.06 0 2.42-.52 2.42-1.73v-1.33zm2.27 3.13a2.72 2.72 0 0 0 .37 1.57h-2.4a1.78 1.78 0 0 1-.22-.86 4.76 4.76 0 0 1-3.07 1.08 3 3 0 0 1-3.2-3c0-1.84 1.47-2.66 2.87-2.94l.95-.19a23.44 23.44 0 0 0 2.46-.56v-.23c0-.93-.8-1.19-1.79-1.19-1.32 0-1.75.39-1.75 1.41l-2.27-.09c0-2.21 2-3.07 4-3.07s4.06.41 4.06 3.09v5zM69 9.28a2.09 2.09 0 0 0-2-1.51c-1.62 0-2.44 1.38-2.44 2.85s.73 2.85 2.31 2.85a2.44 2.44 0 0 0 2.29-1.82l1.94 1a4.36 4.36 0 0 1-4.26 2.88c-2.88 0-4.65-2.12-4.65-4.93A4.6 4.6 0 0 1 67 5.68a4 4 0 0 1 4 2.68l-2 .91zm9.78.13a2.13 2.13 0 0 0-2.14-1.86 2.42 2.42 0 0 0-2.44 1.86zm-4.58 1.75a2.39 2.39 0 0 0 2.44 2.31 3.05 3.05 0 0 0 2.72-1.34l1.92 1.12a5.18 5.18 0 0 1-4.63 2.31 4.6 4.6 0 0 1-4.82-4.93 4.6 4.6 0 0 1 4.82-4.93c3.15 0 4.52 2.1 4.52 5.47zm8.56-9.09h2.27v7.37l3.58-3.53h2.94L87.9 9.57l4 5.75h-2.77l-2.82-4.22-1.28 1.27v2.95h-2.27V2.07zm15.6 8.55a4.1 4.1 0 0 1-1.08.33l-1.28.26c-.86.17-1.56.41-1.56 1.3 0 .71.65 1.17 1.47 1.17 1.06 0 2.42-.52 2.42-1.73v-1.33zm2.27 3.13a2.73 2.73 0 0 0 .35 1.58h-2.4a1.78 1.78 0 0 1-.22-.86 4.75 4.75 0 0 1-3.07 1.08 3 3 0 0 1-3.2-3c0-1.84 1.47-2.66 2.87-2.94l.95-.19a23.42 23.42 0 0 0 2.46-.56v-.24c0-.93-.8-1.19-1.79-1.19-1.32 0-1.75.39-1.75 1.41l-2.27-.09c0-2.21 2-3.07 4-3.07s4.06.41 4.06 3.09v5zM42.5 22.93h.91c.43 0 .6-.25.6-.5s-.24-.56-.68-.56h-.83v1.06zm0-1.29h.8c.38 0 .6-.15.6-.44s-.19-.43-.58-.43h-.82v.88zm-.25-1.1h1.13c.69 0 .78.47.78.61a.52.52 0 0 1-.48.59.63.63 0 0 1 .57.68c0 .38-.25.73-.85.73h-1.15v-2.61zm4.06 1.62l-.49-1.29-.5 1.29zm-.37-1.63l1 2.62h-.27l-.29-.79h-1.14l-.31.79h-.26l1.07-2.62zm1.06.01h1.89v.22h-.82v2.4h-.25v-2.4H47v-.22zm2.52 0h.25v1.15h1.57v-1.15h.25v2.62h-.25v-1.24h-1.57v1.24h-.25v-2.62zm3.14 1.22h.78c.53 0 .65-.27.65-.5s-.16-.5-.61-.5h-.82v1zm-.25-1.23h1.16a.7.7 0 0 1 .77.73c0 .45-.29.68-.77.72l.84 1.17h-.32L53.26 22h-.6v1.16h-.25v-2.62zM56 23c.62 0 .88-.6.88-1.15s-.25-1.15-.88-1.15-.88.6-.88 1.15S55.39 23 56 23zm0-2.53c.78 0 1.13.68 1.13 1.38s-.36 1.38-1.13 1.38-1.13-.68-1.13-1.38.36-1.38 1.13-1.38zM58.9 23c.62 0 .88-.6.88-1.15s-.26-1.15-.88-1.15-.88.6-.88 1.15.25 1.15.88 1.15zm0-2.53c.78 0 1.13.68 1.13 1.38s-.36 1.38-1.13 1.38-1.13-.68-1.13-1.38.36-1.38 1.13-1.38zm1.86.07h.3l.85 2.19h.01l.85-2.19h.31v2.62h-.25v-2.15h-.01L62 23.16h-.17l-.81-2.15h-.01v2.15h-.25v-2.62zm4.89 1.83c0 .44.3.63.74.63s.72-.21.72-.53c0-.8-1.56-.3-1.56-1.33 0-.48.47-.67.84-.67a.87.87 0 0 1 .93.59l-.23.13a.67.67 0 0 0-.7-.48c-.27 0-.59.15-.59.44 0 .78 1.56.28 1.56 1.28 0 .52-.36.8-1 .8s-.89-.2-1-.73l.25-.13zm2.19-1.83h1.89v.22h-.82v2.4h-.25v-2.4h-.82v-.22zm3.22 1.52l-.99-1.52h.31l.81 1.29.82-1.29h.29l-.99 1.52v1.1h-.25v-1.1zm1.83-1.52h.25v2.39h1.45v.23h-1.7v-2.62zm2.29 0h1.71v.22h-1.46v.93h1.32v.23h-1.32v1.01h1.54v.23h-1.79v-2.62zm4.02 1.83c0 .44.3.63.74.63s.72-.21.72-.53c0-.8-1.56-.3-1.56-1.33 0-.48.47-.67.84-.67a.87.87 0 0 1 .94.59l-.23.13a.67.67 0 0 0-.7-.48c-.27 0-.59.15-.59.44 0 .78 1.56.28 1.56 1.28 0 .52-.36.8-1 .8s-.89-.2-1-.73l.25-.13zm2.43-1.83h.25v2.62h-.25v-2.62zm1.12 0H83l1.5 2.2h.01v-2.2h.25v2.62h-.25l-1.5-2.21H83v2.21h-.25v-2.62zm4.65.73a.7.7 0 0 0-.77-.57c-.59 0-.88.46-.88 1.15s.39 1.15.92 1.15a.71.71 0 0 0 .74-.56l.24.13a1 1 0 0 1-1 .66c-.62 0-1.12-.39-1.12-1.38s.53-1.38 1.1-1.38a1 1 0 0 1 1 .68l-.25.13zm.86-.73h1.72v.22h-1.47v.93h1.32v.23h-1.32v1.01h1.55v.23h-1.8v-2.62zm4.39.4c.21 0 .49-.06.49-.4h.21v2.62h-.22V21a.93.93 0 0 1-.49.11v-.21zm3.47.5a.72.72 0 0 0-.66-.74.62.62 0 0 0-.63.68c0 .33.15.72.61.72a.66.66 0 0 0 .69-.66zm-1.27 1.09a.46.46 0 0 0 .53.46c.59 0 .7-.52.75-1a.85.85 0 0 1-1.54-.58.82.82 0 0 1 .87-.88c.71 0 .93.54.93 1.22 0 1.33-.59 1.49-1 1.49a.73.73 0 0 1-.77-.59l.25-.08zM97 21.7a1.06 1.06 0 0 1-.09-.44.77.77 0 0 1 .86-.77.81.81 0 0 1 .91.85c0 .69-.9 1.31-1.4 1.6h1.28v.21H97V23c.38-.29 1.51-.88 1.51-1.63a.61.61 0 0 0-.64-.63.59.59 0 0 0-.65.59.69.69 0 0 0 .17.44h-.29zm2.51.6h.92v-1.39l-.91 1.38zm-.25 0l1.14-1.76h.24v1.76h.42v.21h-.42v.66h-.22v-.67h-1.16v-.2z" id="Layer_1" data-name="Layer 1"/></g></svg>