<svg id="Layer_1" data-name="Layer 1" xmlns="http://www.w3.org/2000/svg" viewBox="0 0 72.074 26.861"><defs><style>.cls-1{fill:#231f20}.cls-1,.cls-2,.cls-4{fill-rule:evenodd}.cls-2{fill:#ffcb05}.cls-3,.cls-5{fill:none;stroke-miterlimit:2.613;stroke-width:0}.cls-3{stroke:#ffcb05}.cls-4{fill:#fff}.cls-5{stroke:#fff}</style></defs><title>halm</title><path class="cls-1" d="M22.725 19.635h3.028l.69-3.987h3.328l-.719 3.987h3.058l1.738-9.834H30.79l-.599 3.418h-3.328l.6-3.418h-3.028l-1.71 9.834z"/><path class="cls-1" d="M223.808 384.975l1.679-3.538.45 3.538h-2.129zm2.608 3.747h3.178l-1.948-9.834h-3.328l-5.426 9.834h3.118l.78-1.619h3.418l.21 1.619z" transform="translate(-185.762 -369.088)"/><path class="cls-1" d="M44.792 19.635h7.764l.42-2.428h-4.737l1.32-7.406h-3.028l-1.739 9.834zm9.114 0h2.488l1.319-7.495.57 7.495h2.249l3.238-7.495-1.32 7.495h2.489l1.738-9.834H62.69l-2.578 5.966-.48-5.966h-3.987l-1.739 9.834z"/><path class="cls-2" d="M0 21.463v5.397h72.074v-5.397H0z"/><path class="cls-3" d="M0 21.463v5.397h72.074v-5.397H0z"/><path class="cls-1" d="M0 0h19.634v19.634H0V0z"/><path class="cls-4" d="M195.579 370.56a8.344 8.344 0 1 1-8.345 8.345 8.361 8.361 0 0 1 8.345-8.345zm0-.491a8.835 8.835 0 1 1-8.835 8.835 8.852 8.852 0 0 1 8.835-8.835z" transform="translate(-185.762 -369.088)"/><path class="cls-5" d="M195.579 370.56a8.344 8.344 0 1 1-8.345 8.345 8.361 8.361 0 0 1 8.345-8.345zm0-.491a8.835 8.835 0 1 1-8.835 8.835 8.852 8.852 0 0 1 8.835-8.835z" transform="translate(-185.762 -369.088)"/><path class="cls-4" d="M195.579 371.787a7.117 7.117 0 1 1-7.118 7.118 7.131 7.131 0 0 1 7.118-7.118zm0-.491a7.608 7.608 0 1 1-7.608 7.608 7.623 7.623 0 0 1 7.608-7.608z" transform="translate(-185.762 -369.088)"/><path class="cls-5" d="M195.579 371.787a7.117 7.117 0 1 1-7.118 7.118 7.131 7.131 0 0 1 7.118-7.118zm0-.491a7.608 7.608 0 1 1-7.608 7.608 7.623 7.623 0 0 1 7.608-7.608z" transform="translate(-185.762 -369.088)"/><path class="cls-4" d="M196.431 376.494l-.006 1.885h1.129c.866.01 1.232-1.872-.061-1.885 0 0-1.062-.018-1.062 0zm3.278 3.185l-.683 1.108.008-.015-.35-1.218c1.927-.609 2.42-3.721-.515-4.55l-3.534-.008v3.521l-1.295.156-.013-3.673h-2.013v3.9l-1.463.16v-.373l-1.144.648 1.144.644v-.353l1.463.186v3.2h2.079l.009-2.967 1.233.134v2.833h1.814v-2.843h.567l.891 2.7.966-1.767.634 1.782-.449.152 1.068.777.377-1.225-.408.125s-.373-3.02-.386-3.035z" transform="translate(-185.762 -369.088)"/><path class="cls-5" d="M196.431 376.494l-.006 1.885h1.129c.866.01 1.232-1.872-.061-1.885 0 0-1.062-.018-1.062 0zm3.278 3.185l-.683 1.108.008-.015-.35-1.218c1.927-.609 2.42-3.721-.515-4.55l-3.534-.008v3.521l-1.295.156-.013-3.673h-2.013v3.9l-1.463.16v-.373l-1.144.648 1.144.644v-.353l1.463.186v3.2h2.079l.009-2.967 1.233.134v2.833h1.814v-2.843h.567l.891 2.7.966-1.767.634 1.782-.449.152 1.068.777.377-1.225-.408.125s-.373-3.02-.386-3.035z" transform="translate(-185.762 -369.088)"/></svg>