<svg xmlns="http://www.w3.org/2000/svg" viewBox="0 0 120.08 22.93"><defs><style>.cls-1{fill:#af2a47}.cls-1,.cls-2,.cls-4{fill-rule:evenodd}.cls-2,.cls-3{fill:#a5c3d2}.cls-4{fill:#fff}.cls-5{fill:#af2948}</style></defs><title>hiterm</title><g id="Слой_2" data-name="Слой 2"><g id="Layer_1" data-name="Layer 1"><path class="cls-1" d="M80.74 11.37h7.36a4.08 4.08 0 0 0-.67-1.45 3.84 3.84 0 0 0-1.33-1.14 3.62 3.62 0 0 0-1.69-.41 3.49 3.49 0 0 0-2.38.9 4.06 4.06 0 0 0-1.28 2.11m0 2.33A4.07 4.07 0 0 0 82 15.82a3.51 3.51 0 0 0 2.38.91 3.78 3.78 0 0 0 3.22-1.83l.13-.19 1.94 1.83-.1.14a6.62 6.62 0 0 1-2.11 1.84 7.39 7.39 0 0 1-3.4.77 5.16 5.16 0 0 1-3-.93 6.81 6.81 0 0 1-3.25-5.83 6.54 6.54 0 0 1 .88-3.27 6.76 6.76 0 0 1 2.39-2.48A6.26 6.26 0 0 1 87 6.39a6.7 6.7 0 0 1 2.1 1.47A6.9 6.9 0 0 1 90.47 10a6.43 6.43 0 0 1 .53 2.53 6.07 6.07 0 0 1-.08 1v.16zm11.9 5.36v-7.48a6.69 6.69 0 0 1 .71-3.2 4.56 4.56 0 0 1 1.89-1.92 5.54 5.54 0 0 1 2.58-.61 4.77 4.77 0 0 1 3.94 1.91l.1.13-1.79 1.88-.13-.24a2 2 0 0 0-.83-.8 2.5 2.5 0 0 0-1.27-.32 2.21 2.21 0 0 0-1.91.85 3.94 3.94 0 0 0-.64 2.33v7.47zM111 7.67a4.81 4.81 0 0 1 3.86-1.82 5 5 0 0 1 3.77 1.53 6 6 0 0 1 1.43 4.2v7.47h-2.61v-7.87a2.81 2.81 0 0 0-.72-2 2.46 2.46 0 0 0-1.87-.75 2.39 2.39 0 0 0-1.82.75 2.83 2.83 0 0 0-.71 2v7.88h-2.61v-7.88a2.82 2.82 0 0 0-.72-2 2.65 2.65 0 0 0-3.69 0 2.82 2.82 0 0 0-.72 2v7.88H102v-7.47a6 6 0 0 1 1.42-4.21 4.93 4.93 0 0 1 3.76-1.53A4.71 4.71 0 0 1 111 7.67m-43.09-.61a5.07 5.07 0 0 1 3.31-1.24A4.74 4.74 0 0 1 75 7.43 6.92 6.92 0 0 1 76.36 12v7.12h-2.63v-7.53a4.17 4.17 0 0 0-.33-1.75 2.33 2.33 0 0 0-1-1.06 3 3 0 0 0-1.53-.37 2.77 2.77 0 0 0-1.53.43 3 3 0 0 0-1.04 1.26 4.59 4.59 0 0 0-.39 2v7h-2.64V2.68h2.64zM56 6.12V2.73h2.64v3.35h3.81v2.51h-3.77V14a3.33 3.33 0 0 0 .54 2.05 1.66 1.66 0 0 0 1.35.67 4.49 4.49 0 0 0 2.74-.86l.24-.18.61 2.6-.12.07a6 6 0 0 1-1.57.64 7.15 7.15 0 0 1-1.85.26A4.53 4.53 0 0 1 57.35 18 4.85 4.85 0 0 1 56 14.39V8.63h-1.44V6.12z"/><path class="cls-2" d="M43.2 6.08h2.64v13H43.2zm0-3.42h2.64v2.58H43.2zm-11 4.41a5.06 5.06 0 0 1 3.3-1.24 4.74 4.74 0 0 1 3.79 1.61A6.92 6.92 0 0 1 40.63 12v7.12H38v-7.53a4.15 4.15 0 0 0-.33-1.75 2.33 2.33 0 0 0-1-1.06 3 3 0 0 0-1.53-.37 2.77 2.77 0 0 0-1.53.43 3 3 0 0 0-1.07 1.26 4.59 4.59 0 0 0-.39 2v7h-2.61V2.68h2.64z"/><path class="cls-3" d="M49.51 10.97h2.62v2.33h-2.62z"/><path class="cls-1" d="M5.3 0H18a5.31 5.31 0 0 1 5.3 5.3v12.33a5.31 5.31 0 0 1-5.3 5.3H5.3a5.31 5.31 0 0 1-5.3-5.3V5.3A5.31 5.31 0 0 1 5.3 0"/><path class="cls-4" d="M18.98 19.01H4.35V5.15l7.31-2.56 7.32 2.56v13.86z"/><path class="cls-5" d="M6.75 16.61V6.85l4.91-1.72 4.92 1.72v9.76H6.75z"/></g></g></svg>