<svg xmlns="http://www.w3.org/2000/svg" viewBox="0 0 97.97 14.46"><defs><style>.cls-1{fill:#26275f;fill-rule:evenodd}</style></defs><title>kaldewei</title><g id="Слой_2" data-name="Слой 2"><path class="cls-1" d="M90.89 5.52h-4V3.31h4.4V0H82v14.46h9.45v-3.31h-4.6V8.86h4.07zm2.18 8.94H98V0h-4.94zM32.93 11V0h-4.87v14.46h8.71V11zM61 5.52h-4V3.31h4.4V0h-9.34v14.46h9.45v-3.31h-4.6V8.86H61zm-23.16 8.94h6a6.81 6.81 0 0 0 6-2.84 7.55 7.55 0 0 0 1-3.78A9.68 9.68 0 0 0 49.48 2a5.1 5.1 0 0 0-4.63-2h-7zm7.35-10.32a3.93 3.93 0 0 1 .38 1.32 11 11 0 0 1 0 3.71 3 3 0 0 1-.57 1.25 2.08 2.08 0 0 1-1.43.63h-.77V3.44h.81a1.74 1.74 0 0 1 1.57.69M71.49 7.2l1.39 7.25h5.26L81.05 0h-3.48l-1.71 8-1.43-8h-4.3l-1.8 8L67 0h-4.81l2.54 14.46H70zM23.06 0h-5.72L13 12.76l-3.17-8 4-4.79H9.21l-4.32 5.6V0H0v14.46h4.84v-3.6l1.27-1.63 2 5.23h8.44l.59-2.09h4.39l.47 2.09h5.22zm-3.6 4.16L20.65 9h-2.57z" id="Layer_1" data-name="Layer 1"/></g></svg>