<svg xmlns="http://www.w3.org/2000/svg" viewBox="0 0 106.09 57.91"><defs><style>.cls-1{fill:#006394}.cls-2{fill:#53b2e5;fill-rule:evenodd}</style></defs><title>koller_pool</title><g id="Слой_2" data-name="Слой 2"><g id="Layer_1" data-name="Layer 1"><path class="cls-1" d="M106.09 55.64l-.41 2h-7.3l2.17-10.2h2.54l-1.76 8.22zM3.82 51.57l4.54-4.15h3.16l-5 4.51 3 5.69h-2.9l-2.08-4.36-1.3 1.13-.69 3.23H0l2.17-10.2h2.54zm11.34 6.34l-.91-.06a4.76 4.76 0 0 1-1.2-.27 4.08 4.08 0 0 1-1.68-1.2 4 4 0 0 1-.76-2.67v-.59c0-.2 0-.4.07-.6a7.28 7.28 0 0 1 1.83-3.7 5.37 5.37 0 0 1 4.23-1.68h.14a4.4 4.4 0 0 1 3.39 1.18 4.29 4.29 0 0 1 1.09 3v.56c0 .19 0 .38-.06.58a7.32 7.32 0 0 1-1.79 3.72 5.28 5.28 0 0 1-4.21 1.72zm.26-2a2.56 2.56 0 0 0 1.92-.78 4.42 4.42 0 0 0 1-1.66 5.23 5.23 0 0 0 .25-1 5.77 5.77 0 0 0 .07-.82 3 3 0 0 0-.4-1.65 1.94 1.94 0 0 0-.85-.71 1.73 1.73 0 0 0-.45-.12h-.4a2.56 2.56 0 0 0-2 .88 4.71 4.71 0 0 0-1 1.87 5.38 5.38 0 0 0-.16.78 5.79 5.79 0 0 0 0 .71v.49a2.58 2.58 0 0 0 .16.73 2.26 2.26 0 0 0 .59.91 1.84 1.84 0 0 0 1.3.43m13.83-.29l-.41 2h-7.3l2.17-10.2h2.54l-1.78 8.16zm8.45 0l-.41 2H30l2.17-10.2h2.54L33 55.64zm4.59-4.16h5l-.4 1.87h-5l-.48 2.29h5.76l-.41 2h-8.34l2.17-10.2h8.21l-.42 2h-5.67zm6.3 6.14l2.14-10.2h5.1a3.51 3.51 0 0 1 2.13.51 2.41 2.41 0 0 1 .84 1.03 2.35 2.35 0 0 1 .11.49A3.83 3.83 0 0 1 59 50v.59a3.33 3.33 0 0 1-.7 1.46 4.43 4.43 0 0 1-1.9 1.26 1.77 1.77 0 0 1 .35.34 2.76 2.76 0 0 1 .47 1.06l.71 2.95h-2.8L54.57 55c-.18-.87-.54-1.14-1.28-1.14h-1.36l-.8 3.77h-2.54zm4.29-8.22L52.33 52h2.06a2 2 0 0 0 1.26-.32 1.49 1.49 0 0 0 .54-.71.8.8 0 0 0 .05-.2 1.52 1.52 0 0 0 0-.2 1 1 0 0 0-.37-.89 1.86 1.86 0 0 0-1.13-.28zm14.6-2h5.39a4.16 4.16 0 0 1 .75.14 2.89 2.89 0 0 1 1.23.78 2.54 2.54 0 0 1 .56 1.82 4.61 4.61 0 0 1-.06.71 3.43 3.43 0 0 1-.23.79 3.93 3.93 0 0 1-1.35 1.66 5 5 0 0 1-3 .76h-2.34l-.76 3.51h-2.53l2.17-10.2zm2 2l-.58 2.72h2.15a2.73 2.73 0 0 0 .55-.1 1.88 1.88 0 0 0 .76-.42 1.21 1.21 0 0 0 .35-1 1 1 0 0 0-.43-1 2.12 2.12 0 0 0-1.07-.25zm10.82 8.49l-.91-.06a4.74 4.74 0 0 1-1.2-.27 4.07 4.07 0 0 1-1.68-1.2 4 4 0 0 1-.76-2.67v-.59c0-.2 0-.4.07-.6a7.27 7.27 0 0 1 1.83-3.7 5.37 5.37 0 0 1 4.23-1.68H82a4.4 4.4 0 0 1 3.39 1.18 4.29 4.29 0 0 1 1.09 3v.56c0 .19 0 .38-.06.58a7.3 7.3 0 0 1-1.79 3.72 5.27 5.27 0 0 1-4.21 1.69zm.26-2a2.56 2.56 0 0 0 1.92-.78 4.43 4.43 0 0 0 1-1.66 5.16 5.16 0 0 0 .25-1 6 6 0 0 0 .07-.82 3 3 0 0 0-.47-1.67 1.94 1.94 0 0 0-.85-.71 1.76 1.76 0 0 0-.46-.12h-.4a2.56 2.56 0 0 0-2 .88 4.73 4.73 0 0 0-1 1.87 5.66 5.66 0 0 0-.16.78 5.8 5.8 0 0 0 0 .71v.49a2.68 2.68 0 0 0 .16.73 2.26 2.26 0 0 0 .59.91 1.84 1.84 0 0 0 1.3.43m11.33 2l-.91-.06a4.73 4.73 0 0 1-1.2-.27 4.06 4.06 0 0 1-1.68-1.2 4 4 0 0 1-.76-2.67v-.59c0-.2 0-.4.07-.6a7.27 7.27 0 0 1 1.83-3.7 5.37 5.37 0 0 1 4.23-1.68h.14A4.4 4.4 0 0 1 97 48.32a4.29 4.29 0 0 1 1.08 3v.56c0 .19 0 .38-.06.58a7.32 7.32 0 0 1-1.79 3.72A5.27 5.27 0 0 1 92 57.9zm.26-2a2.56 2.56 0 0 0 1.87-.82 4.39 4.39 0 0 0 1-1.66 5.31 5.31 0 0 0 .25-1 5.93 5.93 0 0 0 .07-.82 3 3 0 0 0-.37-1.67 1.92 1.92 0 0 0-.85-.71 1.72 1.72 0 0 0-.45-.12h-.4a2.56 2.56 0 0 0-2 .88 4.71 4.71 0 0 0-1 1.87 5.8 5.8 0 0 0-.21 1.5v.49a2.72 2.72 0 0 0 .16.73 2.26 2.26 0 0 0 .59.91 1.85 1.85 0 0 0 1.31.43"/><path class="cls-2" d="M41.27 37.42a14.41 14.41 0 0 0 6.05.87c3.39-.18 7.5-2 11.46-1.92a11.6 11.6 0 0 1 5.91 1.7c-4.92-.39-9.21 2.22-13.82 2.44a13.42 13.42 0 0 1-9.6-3.09M61.84 7.07c-1.21-.37-2.52-1.9-3.32-2.8a1.49 1.49 0 0 0-2.05-.45c-.8.56-1 2.1-.19 4.13 2.58 6.37 9.39 10 11.53 16.67.85 2.65.55 6.44-1.88 8.4-1.79 1.44-3.63 1-7.62.75-4.15-.21-8.16.91-12.26 1.29-3.76.35-10.45-.6-11.73-3a1.76 1.76 0 0 0 1.76-.48c-.94.28-4.09-.17-4.77-2.43 1.59.93 3.5.5 5.43-.37a8.75 8.75 0 0 0 2.69 1.58 12.19 12.19 0 0 0 1.74.5c-4.06-1.6-4.87-5.46-7.54-5.5a7.45 7.45 0 0 1 2-1.78c1.21-.68 2.3.18 3.25 1.29 2.29 2.68 4.49 4.55 7.53 5.49a14.63 14.63 0 0 0 2 .46c.39.06.79.11 1.2.15a16.54 16.54 0 0 0 5.1-.32 22.19 22.19 0 0 1-3.75 0c-4.87-.43-7.77-2.5-10.8-6-1.27-1.48-3.18-3.19-6-2.23a7.16 7.16 0 0 1 3.55-2.92 3.77 3.77 0 0 0-2.71-.15 5.39 5.39 0 0 1 3.26-3.44 1 1 0 0 0-.57-.17A6.69 6.69 0 0 1 45 13.59a2.51 2.51 0 0 0-1.55-.89c3.24-1.52 7.4.83 9.86 5.16 2.28 4 3.88 6.14 7.21 8.36 6.24-.4-4.6-10.19-7.19-17.41-2-5.69 2.17-11.45 8.24-7.54 1.5 1 3.18 3.31 2.46 4.8v.09a1 1 0 0 0-.09.49 8.69 8.69 0 0 0 .53 2c.1.26.22.73 0 .92s-2.27-2.27-2.63-2.5"/></g></g></svg>