<svg xmlns="http://www.w3.org/2000/svg" viewBox="0 0 94.66 14.57"><defs><style>.cls-1{fill:#006bb6;fill-rule:evenodd}</style></defs><title>korado</title><g id="Слой_2" data-name="Слой 2"><g id="Layer_1" data-name="Layer 1"><path class="cls-1" d="M21.1 5.88a2.11 2.11 0 0 0 2.1-2.11v-3h-.84v3A1.27 1.27 0 0 1 21.1 5h-1.27V.82H19v5.06z"/><path class="cls-1" d="M21.1 7.56a3 3 0 0 1 3 3v3.79h.84v-3.83a3.8 3.8 0 0 0-2.06-3.37 3.8 3.8 0 0 0 2.06-3.37v-3H24v3a3 3 0 0 1-3 3h-3V.82h-.7v13.49h.84V7.56h3zM15.62.82h.84v13.49h-.84V.82z"/><path class="cls-1" d="M21.1 8.41a2.11 2.11 0 0 1 2.11 2.11v3.79h-.84v-3.79a1.27 1.27 0 0 0-1.27-1.27h-1.27v5.06H19v-5.9zm3.17-1.27a4.56 4.56 0 0 0 .56-.63 4.61 4.61 0 0 0 .9-2.74v-3h.84v3a5.45 5.45 0 0 1-1.17 3.37 5.45 5.45 0 0 1 1.17 3.37v3.79h-.84v-3.78a4.63 4.63 0 0 0-1.46-3.38zm3.73.42a6.18 6.18 0 1 0 6.18-6.18A6.19 6.19 0 0 0 28 7.56zm-.82 0a7 7 0 1 0 7-7 7 7 0 0 0-7 7z"/><path class="cls-1" d="M29.64 7.56A4.53 4.53 0 1 0 34.17 3a4.54 4.54 0 0 0-4.53 4.53zm-.82 0a5.36 5.36 0 1 0 5.36-5.35 5.37 5.37 0 0 0-5.36 5.35z"/><path class="cls-1" d="M31.28 7.56a2.88 2.88 0 1 0 2.88-2.88 2.89 2.89 0 0 0-2.88 2.88zm-.82 0a3.71 3.71 0 1 0 3.71-3.71 3.71 3.71 0 0 0-3.71 3.71zm21.65 1.26a5.15 5.15 0 0 0 .95-2.94A5.07 5.07 0 0 0 48 .82h-5.9v13.49h.84V1.66H48a4.22 4.22 0 0 1 3 7.17 4.29 4.29 0 0 1 1.2 3v2.53h.84v-2.58a5.15 5.15 0 0 0-.95-3z"/><path class="cls-1" d="M48 7.56a1.69 1.69 0 0 0 0-3.37h-2.53v10.12h.84V5H48a.84.84 0 0 1 0 1.69h-.84v.84z"/><path class="cls-1" d="M49.68 11.78A1.69 1.69 0 0 0 48 10.09h-.84v.84H48a.84.84 0 0 1 .84.84v2.53h.84v-2.52z"/><path class="cls-1" d="M49.63 8.83a3.38 3.38 0 0 1 1.74 3v2.53h-.84v-2.58A2.53 2.53 0 0 0 48 9.25h-.84v-.84H48a2.53 2.53 0 0 0 0-5.06h-3.38v11h-.84V2.51H48a3.37 3.37 0 0 1 1.63 6.32zM65.54 6.3a5.48 5.48 0 0 0-11 0v8h.84v-8a4.64 4.64 0 0 1 9.28 0v8h.84v-8z"/><path class="cls-1" d="M57.1 6.3a3 3 0 0 1 5.9 0v3h-5.9v-3zm6.75 0a3.79 3.79 0 0 0-7.59 0v8h.84v-4.21H63v4.22h.84v-8z"/><path class="cls-1" d="M58.79 6.3a1.26 1.26 0 0 1 2.53 0v1.26h-2.53V6.3zm3.37 0a2.11 2.11 0 0 0-4.22 0v2.11h4.22V6.3zm-4.21 8.01v-3.37h4.21v3.37h-.84v-2.53h-2.53v2.53h-.84zM72.11 1.66a5.9 5.9 0 1 1 0 11.81v.84a6.75 6.75 0 1 0 0-13.49h-5.06v13.49h.84V1.66z"/><path class="cls-1" d="M72.11 3.35a4.22 4.22 0 1 1 0 8.43v.84a5.06 5.06 0 1 0 0-10.12h-3.37v11.81h.84v-11z"/><path class="cls-1" d="M72.11 5a2.53 2.53 0 1 1 0 5.06v.84a3.37 3.37 0 1 0 0-6.75h-1.68v10.16h.84V5zm21.28-5a1.27 1.27 0 1 1-1.27 1.27A1.28 1.28 0 0 1 93.39 0zm0 .24a1 1 0 1 1-1 1 1 1 0 0 1 1-1z"/><path class="cls-1" d="M93.44.74a.23.23 0 0 1 0 .45h-.36V.73zm.07-.17a.4.4 0 0 1 0 .8s.37.62.36.62h-.24l-.38-.62h-.21V2h-.24V.57zM3.36 7.79V.8H0v6.99h3.36zm0 .91v-.55H0v.55h3.36zm0 .9v-.54H0v.54h3.36zm0 4.66V9.97H0v4.29h3.36zm7.28 0A5.42 5.42 0 0 0 5.19 10H3.71v4.29zM5.06 7.8c7 0 6.5-7 6.5-7H3.71v7z"/><path class="cls-1" d="M5.19 9.6A5.69 5.69 0 0 1 11 14.26h.55a6.24 6.24 0 0 0-6.36-5.2H3.71v.54z"/><path class="cls-1" d="M5.12 8.7c6.39 0 6.82 5.56 6.82 5.56h1.52V.8h-1.52s.77 7.36-6.82 7.36H3.71v.54zm75.15-1.14a6.18 6.18 0 1 0 6.18-6.18 6.19 6.19 0 0 0-6.18 6.18zm-.82 0a7 7 0 1 0 7-7 7 7 0 0 0-7 7z"/><path class="cls-1" d="M81.91 7.56A4.53 4.53 0 1 0 86.45 3a4.54 4.54 0 0 0-4.53 4.53zm-.82 0a5.36 5.36 0 1 0 5.36-5.35 5.37 5.37 0 0 0-5.36 5.35z"/><path class="cls-1" d="M83.56 7.56a2.88 2.88 0 1 0 2.88-2.88 2.89 2.89 0 0 0-2.88 2.88zm-.82 0a3.71 3.71 0 1 0 3.71-3.71 3.71 3.71 0 0 0-3.71 3.71z"/></g></g></svg>