<svg xmlns="http://www.w3.org/2000/svg" viewBox="0 0 72.92 31.1"><defs><style>.cls-1{fill:#f36f21}.cls-2,.cls-3{fill:#17479e}.cls-2{fill-rule:evenodd}</style></defs><title>Asset 1</title><g id="Layer_2" data-name="Layer 2"><g id="Layer_1-2" data-name="Layer 1"><path class="cls-1" d="M18.88 9c.37-.07.74-.12 1.12-.16s.75-.05 1.13-.05.75 0 1.12.05S23 9 23.37 9a10.2 10.2 0 0 1 1.09.27 10.17 10.17 0 0 1 1.06.36c.35.14.69.3 1 .47s.65.36 1 .56a10 10 0 0 1 .91.65c.29.23.57.48.84.73a8.36 8.36 0 0 1 .58.61q.3.33.57.69c.18.24.35.49.51.74s.3.51.44.78.26.53.38.8.22.55.31.83.17.55.24.84.12.56.17.85v.07a.31.31 0 0 1-.31.32H31a.32.32 0 0 1-.3-.26c0-.25-.09-.49-.15-.73s-.12-.48-.2-.72-.17-.47-.27-.7-.2-.46-.31-.68-.24-.44-.37-.66-.27-.42-.42-.62-.31-.4-.47-.59-.33-.37-.51-.55-.46-.43-.71-.64c-.24-.2-.5-.38-.76-.56s-.53-.34-.81-.49-.57-.28-.86-.4a8.49 8.49 0 0 0-.89-.31 8.83 8.83 0 0 0-.92-.23 9.901 9.901 0 0 0-1.88-.19c-.32 0-.64 0-1 .05s-.62.08-.93.14-.62.14-.92.23a9.37 9.37 0 0 0-.89.31A9.855 9.855 0 0 0 15 12.42c-.24.2-.48.42-.71.64l-.51.55c-.16.19-.32.39-.47.59s-.29.41-.42.62-.25.44-.37.66-.21.44-.31.67a6.61 6.61 0 0 0-.26.7q-.12.36-.21.72t-.15.72a.3.3 0 0 1-.3.28h-1.23a.3.3 0 0 1-.3-.35c0-.29.1-.58.17-.87s.15-.57.24-.85.2-.56.31-.83.24-.55.38-.81.29-.52.45-.78a7.25 7.25 0 0 1 .5-.73 7.89 7.89 0 0 1 .57-.7c.2-.22.4-.44.62-.65q.4-.37.84-.72c.29-.23.59-.45.9-.65a10.21 10.21 0 0 1 1-.56c.33-.17.67-.33 1-.47a10.17 10.17 0 0 1 1.06-.36A10.2 10.2 0 0 1 18.88 9m54.04 8.84a.31.31 0 0 1-.3.3l-37.73.36a.3.3 0 0 1-.3-.3l-.06-1a.3.3 0 0 1 .3-.31h37.78a.31.31 0 0 1 .3.3zM27 0l.62.21a.32.32 0 0 1 .18.14.36.36 0 0 1 0 .23l-2 6.86a.34.34 0 0 1-.15.18.38.38 0 0 1-.24 0l-.93-.31h-.11a.27.27 0 0 1 0-.12.25.25 0 0 1 0-.12L26.61.2a.31.31 0 0 1 .15-.2.35.35 0 0 1 .24 0zM15.27 0a.36.36 0 0 1 .23 0 .34.34 0 0 1 .15.18L18 7a.3.3 0 0 1 0 .23.34.34 0 0 1-.18.15l-.94.31a.35.35 0 0 1-.23 0 .3.3 0 0 1-.15-.18L14.44.59a.31.31 0 0 1 0-.23.27.27 0 0 1 .17-.14l.65-.22zM4.94 6.59a.29.29 0 0 1 .42-.06l5.75 4.26a.41.41 0 0 1 .12.2.32.32 0 0 1-.06.23l-.61.78a.29.29 0 0 1-.2.11.29.29 0 0 1-.22-.06L4.59 7.53a.32.32 0 0 1 0-.43zM0 17.19A.31.31 0 0 1 .1 17a.33.33 0 0 1 .21-.09h7.16a.3.3 0 0 1 .21.08.29.29 0 0 1 .09.22v1a.31.31 0 0 1-.09.21.35.35 0 0 1-.22.08l-7.17-.34a.32.32 0 0 1-.21-.1.33.33 0 0 1-.08-.22zm37.31-10.6l.41.52a.31.31 0 0 1 .06.22.33.33 0 0 1-.11.2L32.1 12a.34.34 0 0 1-.22.07.33.33 0 0 1-.2-.11l-.61-.78A.31.31 0 0 1 31 11a.32.32 0 0 1 .12-.2l5.76-4.25a.3.3 0 0 1 .42 0z"/><path class="cls-2" d="M22.21 21.14H16a3.08 3.08 0 0 0-3.07 3.07V28A3.11 3.11 0 0 0 16 31.1h6.2a3.09 3.09 0 0 0 3.09-3.1v-3.79a3.09 3.09 0 0 0-3.08-3.07m-4.68 2h3.17a.85.85 0 0 1 .84.84v4.28a.85.85 0 0 1-.84.84h-3.17a.84.84 0 0 1-.84-.84V24a.85.85 0 0 1 .84-.84M55.37 27h5.18a.22.22 0 0 0 .22-.22v-1.5a.22.22 0 0 0-.22-.23h-5.18a.1.1 0 0 1-.1-.1v-1.1a.68.68 0 0 1 .73-.65h5.33a.22.22 0 0 0 .22-.22v-1.62a.22.22 0 0 0-.22-.22h-6.7a3 3 0 0 0-3.1 2.86v4.19a3 3 0 0 0 3.1 2.94h6.7a.22.22 0 0 0 .22-.23v-1.6a.22.22 0 0 0-.22-.22H56a.7.7 0 0 1-.74-.65V27.1a.1.1 0 0 1 .1-.11M27.2 31.1h7.24a3 3 0 1 0 0-6.06h-3c-1 0-1-1.85 0-1.85h5.86a.22.22 0 0 0 .23-.22v-1.61a.22.22 0 0 0-.23-.22h-7.22a2.93 2.93 0 1 0 0 5.85h3c1 0 1 2.06 0 2.06H27.2a.22.22 0 0 0-.22.22v1.6a.22.22 0 0 0 .22.23m12.54 0h3a.22.22 0 0 0 .22-.23V27.1a.11.11 0 0 1 .11-.11H47a2.93 2.93 0 1 0 0-5.85h-7.26a.22.22 0 0 0-.22.22V23a.22.22 0 0 0 .22.22h5.82c1 0 1 1.85 0 1.85h-5.82a.22.22 0 0 0-.22.23v5.6a.22.22 0 0 0 .22.23m26.7-.03h6a.23.23 0 0 0 .23-.23v-1.6a.22.22 0 0 0-.23-.22h-4.75a.71.71 0 0 1-.74-.71v-6.95a.22.22 0 0 0-.22-.25h-3.17a.22.22 0 0 0-.22.22v6.9a3 3 0 0 0 3.1 2.84m-65.67 0h3.17a.22.22 0 0 0 .22-.23v-3.23a.11.11 0 0 1 .17-.08L8.64 31c.07 0 .1.08.18.08h3.35a.27.27 0 0 0 .23-.08.23.23 0 0 0-.07-.25l-5.56-4.37a.32.32 0 0 1-.08-.22.32.32 0 0 1 .09-.21l5.57-4.33a.23.23 0 0 0-.15-.39H8.86a.23.23 0 0 0-.21.08l-4.32 3.36a.1.1 0 0 1-.17-.08v-3.23a.22.22 0 0 0-.22-.22H.77a.22.22 0 0 0-.22.22v9.51a.22.22 0 0 0 .22.23"/><path class="cls-3" d="M71 22.26h.23a1.35 1.35 0 0 0 .28 0 .15.15 0 0 0 .09-.06.21.21 0 0 0 0-.12.28.28 0 0 0 0-.13.23.23 0 0 0-.12-.06H71zm-.31.89v-1.54h.65a1 1 0 0 1 .36 0 .34.34 0 0 1 .18.15.4.4 0 0 1 .12.24.46.46 0 0 1-.1.29.53.53 0 0 1-.31.14.59.59 0 0 1 .17.13 2.12 2.12 0 0 1 .18.25l.18.3h-.37l-.22-.34a1.54 1.54 0 0 0-.17-.22.28.28 0 0 0-.09-.07H71v.64z"/><path class="cls-3" d="M72.16 21.58a1.15 1.15 0 0 0-.83-.35 1.18 1.18 0 0 0-1.18 1.18 1.16 1.16 0 0 0 1.18 1.18 1.18 1.18 0 0 0 1.18-1.18 1.15 1.15 0 0 0-.35-.83m-.83-.53a1.34 1.34 0 0 1 1 .4 1.32 1.32 0 0 1 .4 1 1.36 1.36 0 0 1-.4 1 1.38 1.38 0 0 1-1 .4 1.4 1.4 0 0 1-1-.4 1.36 1.36 0 0 1-.4-1 1.32 1.32 0 0 1 .4-1 1.36 1.36 0 0 1 1-.4"/></g></g></svg>