<svg xmlns="http://www.w3.org/2000/svg" viewBox="0 0 92 24.07"><defs><style>.cls-1{fill:#231f20}.cls-2{fill:#0081c6}.cls-3{fill:#fff}</style></defs><title>lk_armatur</title><g id="Слой_2" data-name="Слой 2"><g id="Layer_1" data-name="Layer 1"><path class="cls-1" d="M30 16.68v-9.5h1.28v8.42h3.95v1.08H30zm11.49 0l-3.9-4.5v4.5h-1.26v-9.5h1.26v4.46l3.83-4.46h1.42l-4.03 4.64 4.23 4.86h-1.55zm7.85-8.14l-1.59 4.62h3.2l-1.61-4.62zm2.83 8.14l-.87-2.48h-3.91l-.87 2.48h-1.28l3.44-9.49H50l3.47 9.49zM58 10.7a3.5 3.5 0 0 0-.51 0 2.39 2.39 0 0 0-2 1.12v4.89h-1.21V9.79h1.08v.9a2.87 2.87 0 0 1 2.22-1.09 1.61 1.61 0 0 1 .74.13l-.28 1zm9.51 5.98v-4a2.76 2.76 0 0 0-.34-1.68 1.18 1.18 0 0 0-.94-.36 3.84 3.84 0 0 0-1.82.58 6.48 6.48 0 0 1 .11 1.61v3.86h-1.2v-3.83c0-.92 0-1.55-.34-1.92a1.23 1.23 0 0 0-.9-.31 3.82 3.82 0 0 0-1.76.57v5.48h-1.21V9.79h1.08v.51a4.13 4.13 0 0 1 2.11-.7 2 2 0 0 1 1.69.8 4.41 4.41 0 0 1 2.39-.8 2.21 2.21 0 0 1 1.65.6 3 3 0 0 1 .68 2.48v4zm6.35-3.42h-.36a3.56 3.56 0 0 0-2.42.6 1 1 0 0 0-.31.8c0 .7.5 1.18 1.36 1.18a3.79 3.79 0 0 0 1.72-.51v-2.07zm.09 3.42v-.51a4 4 0 0 1-2.11.65 2.06 2.06 0 0 1-2.22-2.13c0-2.28 2.86-2.33 3.93-2.33h.31v-.44a1.22 1.22 0 0 0-.28-1 1.68 1.68 0 0 0-1.21-.36 3.85 3.85 0 0 0-1.89.54l-.48-.78a4.08 4.08 0 0 1 2.45-.71 2.82 2.82 0 0 1 2 .7 2.56 2.56 0 0 1 .55 2v4.33zm4.93.17a2.14 2.14 0 0 1-1.55-.53c-.5-.5-.45-1.19-.45-2v-3.53h-1.22v-1h1.21V7.85h1.21v1.94h2.12v1h-2.12v3.71c0 .7 0 1.31 1 1.31a2.52 2.52 0 0 0 1-.18l.31.85a3 3 0 0 1-1.48.37zm6.58-.17v-.51a4 4 0 0 1-2.15.7 2.47 2.47 0 0 1-1.68-.57c-.63-.66-.63-1.4-.63-2.51v-4h1.21v3.91c0 .87 0 1.44.37 1.79a1.4 1.4 0 0 0 1 .34 3.72 3.72 0 0 0 1.81-.6V9.79h1.21v6.89zm6.26-5.98a3.5 3.5 0 0 0-.51 0 2.39 2.39 0 0 0-2 1.12v4.89H88V9.79h1v.9a2.87 2.87 0 0 1 2.26-1.09 1.61 1.61 0 0 1 .74.13l-.28 1z"/><path class="cls-2" d="M23.54 22.13a2 2 0 0 1-2 1.94H2a2 2 0 0 1-2-1.94V1.94A2 2 0 0 1 2 0h19.57a2 2 0 0 1 2 1.94v20.19z"/><path class="cls-3" d="M18.19 20.32H5.46a1.46 1.46 0 0 1-1.52-1.49V5.06a1.44 1.44 0 0 1 1.52-1.57A1.44 1.44 0 0 1 7 5.06v12.5h11.2a1.39 1.39 0 1 1 0 2.76z"/><path class="cls-3" d="M18 16.09A2.58 2.58 0 0 1 16.2 15l-.11-.12-4-4.24v3.89a1.44 1.44 0 0 1-1.52 1.57A1.44 1.44 0 0 1 9 14.51V5.06a1.44 1.44 0 0 1 1.52-1.57 1.44 1.44 0 0 1 1.52 1.57v3.22l4-4a1.72 1.72 0 0 1 1.42-.74A1.58 1.58 0 0 1 19 4.92a1.85 1.85 0 0 1-.6 1.19l-3.48 3.24 3.8 3.85c.45.47.81.85.81 1.39a1.48 1.48 0 0 1-1.53 1.5z"/></g></g></svg>