<svg xmlns="http://www.w3.org/2000/svg" viewBox="0 0 72.38 28.5"><defs><style>.cls-1,.cls-2{fill:#006991}.cls-1{fill-rule:evenodd}</style></defs><title>luxor</title><g id="Слой_2" data-name="Слой 2"><g id="Layer_1" data-name="Layer 1"><path class="cls-1" d="M70.95 23.39A1.34 1.34 0 0 1 70 23a1.37 1.37 0 0 1-.41-1A1.41 1.41 0 1 1 72 23a1.38 1.38 0 0 1-1 .41zm0-.23a1.11 1.11 0 0 0 .92-.42 1.16 1.16 0 0 0 0-1.51 1.17 1.17 0 0 0-1.8 0 1.18 1.18 0 0 0-.28.75 1.14 1.14 0 0 0 .34.83 1.11 1.11 0 0 0 .82.35zm-.55-.42v-1.53h.6q.51 0 .51.38a.45.45 0 0 1-.33.44l.45.71h-.4l-.34-.62h-.19v.62zm.31-.83h.08q.39 0 .39-.28t-.35-.2h-.12v.48zm-52.29-4.43A8.34 8.34 0 0 1 14 15l-.18-.18v2.91h6.82-.59a8 8 0 0 1-1.62-.18zM13.88 4.61v5.17a6.56 6.56 0 1 0 6.49-7.6H2v24.37h25.2v-6.93H11.78V4.72a1 1 0 0 1 1.07-1 .93.93 0 0 1 1.05.9zM20.46 0a9 9 0 0 1 8.79 9 8.8 8.8 0 0 1-7 8.61l6.82.14V28.5H0V0z"/><path class="cls-2" d="M45.55 23.2h2.12a3.83 3.83 0 0 1 .66.7c.21.23.65.64.88 1l1.69-1.62H53l-2.41 2.49 2.62 2.65h-2.28l-1.69-1.92-1.72 1.84h-2.15l2.55-2.59-2.37-2.55zm-6.47.07v2.83a.91.91 0 0 0 .83 1h1.94a.72.72 0 0 0 .75-.68v-3.17h1.58v3.14a2 2 0 0 1-.32 1.4c-.44.59-1.05.6-1.8.61h-2.8a1.62 1.62 0 0 1-1.69-1.44V23.3zm-8.19.03h1.64v3.8h3.61v1.27h-5.25V23.3z"/><path class="cls-1" d="M56.55 24.55c-.48 0-.7.27-.72.48v1.55a.61.61 0 0 0 .57.55H59c.19 0 .74-.13.76-.56v-1.5c0-.41-.48-.55-.88-.53zm-.81-1.29h3.79c.8 0 1.71.23 1.75 1.06v3c-.05.86-1.13 1.12-1.52 1.12h-4.32a1.22 1.22 0 0 1-1.14-1.1v-3.12c0-.43.49-.95 1.43-1zm8.38 1.34v1.15h2.76a.52.52 0 0 0 .5-.55c0-.26 0-.6-.49-.6zm0 3.76h-1.64v-5.1h5.09c1 0 1.37.41 1.41 1.23a3.82 3.82 0 0 1-.16 1.5 1.16 1.16 0 0 1-.76.4c.38 0 .82.26.83.68v1.31h-1.55v-.65c0-.55-.33-.65-.65-.65H64.1v1.29z"/></g></g></svg>