<svg id="Layer_1" data-name="Layer 1" xmlns="http://www.w3.org/2000/svg" viewBox="0 0 78.509 16.054"><defs><style>.cls-1{fill:#ed1c24}.cls-2{fill:#231f20}</style></defs><title>malgorani</title><path class="cls-1" d="M76.075 5.391v2.58h2.434v-2.58h-2.434z"/><path class="cls-2" d="M76.075 15.762h2.434V8.365h-2.434v7.397z"/><path class="cls-2" d="M438.848 384.38l.009 3.029h-1.683l1.674-3.029zm48.919-9.488h-61.215c-5.251 0-9.508 5.119-9.508 11.434a13.432 13.432 0 0 0 .707 4.328h3.439l4.31-6.074v6.074h1.959l3.872-5.932v5.932h4.052l.879-1.59h2.6v1.59l2.067-.038.406-9.931h-2.5l-5.289 8.228v-8.228h-2.256l-3.836 6.13v-6.13h-1.785l-6.268 8.943a11.637 11.637 0 0 1-.472-3.3c0-5.263 3.418-9.545 7.619-9.545h61.215a6.969 6.969 0 0 1 5.345 2.874h2.277a9.142 9.142 0 0 0-7.622-4.764z" transform="translate(-417.044 -374.889)"/><path class="cls-2" d="M27.551 5.793h-2.39v9.969h5.938v-2.195h-3.548V5.793z"/><path class="cls-2" d="M453.4 387.086h2.039a1.941 1.941 0 0 1-.318.951 1.671 1.671 0 0 1-.71.583 2.4 2.4 0 0 1-.987.2 2.166 2.166 0 0 1-1.36-.446 2.787 2.787 0 0 1-.878-1.164 3.9 3.9 0 0 1-.3-1.513 4.034 4.034 0 0 1 .291-1.514 2.81 2.81 0 0 1 .861-1.18 2.1 2.1 0 0 1 1.347-.454 2 2 0 0 1 1.278.428 2.517 2.517 0 0 1 .8 1.161l2.368-1.033a4.91 4.91 0 0 0-1.041-1.542 4.149 4.149 0 0 0-1.47-.936 5.167 5.167 0 0 0-1.821-.312 5.715 5.715 0 0 0-2.113.378 4.691 4.691 0 0 0-1.657 1.093 4.855 4.855 0 0 0-1.072 1.709 6.18 6.18 0 0 0-.374 2.189 5.676 5.676 0 0 0 .647 2.738 4.6 4.6 0 0 0 1.821 1.863 5.315 5.315 0 0 0 2.658.662 4.516 4.516 0 0 0 3.965-1.956 4.944 4.944 0 0 0 .611-1.209 5.934 5.934 0 0 0 .283-1.243q.07-.615.086-1.487H453.4v2.037zm13.211.04a2.935 2.935 0 0 1-1.017 1.156 2.57 2.57 0 0 1-2.809 0 2.927 2.927 0 0 1-1.02-1.156 3.585 3.585 0 0 1-.377-1.653 2.76 2.76 0 0 1 .38-1.4 2.963 2.963 0 0 1 1.026-1.06 2.636 2.636 0 0 1 2.789 0 2.956 2.956 0 0 1 1.023 1.06 2.773 2.773 0 0 1 .379 1.4 3.588 3.588 0 0 1-.375 1.652zm1.041-5.291a5 5 0 0 0-1.6-1.056 4.865 4.865 0 0 0-3.729 0 5 5 0 0 0-2.7 2.672 5.041 5.041 0 0 0-.4 2.023 6.32 6.32 0 0 0 .364 2.172 5.122 5.122 0 0 0 1.04 1.738 4.626 4.626 0 0 0 1.587 1.131 5.182 5.182 0 0 0 3.964 0 4.607 4.607 0 0 0 1.584-1.126 5.119 5.119 0 0 0 1.037-1.738 6.336 6.336 0 0 0 .365-2.176 5.034 5.034 0 0 0-1.506-3.64z" transform="translate(-417.044 -374.889)"/><path class="cls-2" d="M73.347 11.888h-.025l-4.054-6.095h-2.216v9.969h2.216V9.654h.022l4.518 6.108h1.755V5.793h-2.216v6.095z"/><path class="cls-2" d="M480.888 387.409h-1.683l1.674-3.029.009 3.029zm-8.163-2.334h-.663v-2.631h.663a7.407 7.407 0 0 1 1.459.094 1.4 1.4 0 0 1 .69.495 1.636 1.636 0 0 1 .195.875 1.115 1.115 0 0 1-.252.78 1.067 1.067 0 0 1-.634.37c-.269.038-1.125.018-1.457.018zm2.923 3.731l-1.217-1.906a5.659 5.659 0 0 0 1.736-.861 2.544 2.544 0 0 0 .732-1 3.322 3.322 0 0 0 .25-1.295 3.156 3.156 0 0 0-.437-1.716 2.6 2.6 0 0 0-1.207-1.022 4.451 4.451 0 0 0-1.765-.329h-3.813v9.969h2.162v-3.835h.411l2.114 3.835h2.8l.879-1.59h2.6v1.59l2.067-.038.406-9.931h-2.5l-5.222 8.124z" transform="translate(-417.044 -374.889)"/></svg>