<svg id="Layer_1" data-name="Layer 1" xmlns="http://www.w3.org/2000/svg" viewBox="0 0 60.38 26.63"><defs><style>.cls-1{fill:#f26522}</style></defs><title>Artboard 1</title><path class="cls-1" d="M0 0v26.63h16.74V0zm16.12 26H.62V.62h15.5zm1.75-26v26.63h24.34V0zm23.72 26h-23.1V.62h23.1zm1.75-26v26.63h17V0zm16.42 26H44V.62h15.8z"/><path class="cls-1" d="M1.28 21.25l2.8-10.1h4.84l-.16 1.2c3.28-2.28 7.69-1.93 6.41 2.24l-1.92 6.65H8.51L10.22 15c.74-2.63-2-1.37-2.52.6l-1.57 5.7H1.28M24 21.24l1.39-4.89c.79-2.87 3.54-3.7 2.87-1.26l-1.66 6.15h4.78l1.37-4.93c.77-2.88 3.38-3.2 2.83-1.22l-1.67 6.15h4.83l1.85-6.62c1.17-4.13-4.17-4.44-6.86-1.52-.66-2.14-3.78-2.72-7-.79l.1-1.14H22.2l-2.88 10.07H24m34.61-8.33a3.68 3.68 0 0 1-.34 2.64h-4.86c.28-1.34.72-2.18 0-2.63A1.74 1.74 0 0 0 51 14.36c-.42 1.51-.46 1.58-.91 3.31-.45 1.48-.07 1.8.56 1.9 1.74.21 1.86-1.25 2.27-2.61h4.93c-.35 1.46-.83 3.1-2.05 3.7-2.23 1-6.33 1.71-9.43 0-1.72-1-1.48-2.39-.08-6.64a4.54 4.54 0 0 1 3.44-3 14.69 14.69 0 0 1 6.82.17 3.62 3.62 0 0 1 2.08 1.7"/></svg>