<svg xmlns="http://www.w3.org/2000/svg" viewBox="0 0 69.2 16"><defs><style>.cls-1{fill:#da2128;fill-rule:evenodd}</style></defs><title>ravak</title><g id="Слой_2" data-name="Слой 2"><g id="Layer_1" data-name="Layer 1"><path class="cls-1" d="M67.72 5.17H68l.38.63h.24l-.41-.64a.38.38 0 0 0 .37-.4c0-.29-.17-.41-.51-.41h-.57V5.8h.22v-.63zm0-.19v-.44H68c.15 0 .32 0 .32.21S68.16 5 68 5h-.26zm-57.2 2.31H3.29L0 16h4l3-8.09L10.58 16h4.27l-2.24-5.11A5.59 5.59 0 0 0 10.81 0H6L4.57 3.9h5.95a1.7 1.7 0 0 1 0 3.39z"/><path class="cls-1" d="M66.79 5.07A1.21 1.21 0 1 0 68 3.86a1.21 1.21 0 0 0-1.21 1.21zm.16 0a1 1 0 1 1 1 1 1 1 0 0 1-1-1zm-46.01 6.2l1.64-5h.05l1.54 5zM19.29 16l.79-2.37H25l.81 2.37h3.79L24.82 3.87h-4.1L15.94 16zM38.05 3.87h3.34l-4.41 12.12h-4.01L28.69 3.87h3.71l2.73 8.78h.04l2.88-8.78zm7.44 7.4l1.64-5h.05l1.54 5zM43.84 16l.79-2.37h4.92l.8 2.37h3.79L49.36 3.87h-4.1L40.48 16z"/><path class="cls-1" d="M62.86 3.87h3.97l-4.17 5.34 4.51 6.78h-4.16l-4-6.44h-.03v6.44h-3.36V3.87h3.36v5.32h.03l3.85-5.32z"/></g></g></svg>