<svg id="Layer_1" data-name="Layer 1" xmlns="http://www.w3.org/2000/svg" viewBox="0 0 84.157 25.622"><defs><style>.cls-1{fill:#00a94f}.cls-2{fill:#ed1c24}.cls-3{fill:#31a453}.cls-4{fill:#fff}.cls-5{fill:none;stroke:#231f20;stroke-width:.11px}.cls-6{fill:#231f20}</style></defs><title>tdm</title><path class="cls-1" d="M0 0v3.635h3.602V6.16h6.211V3.723h4.098V0H0zm3.631 8.034h6.153v5.954H3.631V8.034z"/><path class="cls-1" d="M327.836 315.019h-6.345v-6.106H331.5a7.04 7.04 0 0 1 5.562 6.106h-6.5s.223-2.55-2.725-2.5v2.5zm-6.278 1.967h6.211v2.371a2.432 2.432 0 0 0 2.881-2.326h6.345s-.493 4.851-6.345 5.791h-9.092v-5.836z" transform="translate(-305.31 -308.805)"/><path class="cls-1" d="M34.544 6.259V.176h5.854l2.77 5.076h.49L46.316.176h6.122v6.083H34.544zm-.023 1.989h17.828v5.813h-5.876V9.679h-.446l-2.124 4.36h-2.635L39.08 9.567h-.538v4.472h-4.021V8.248z"/><path class="cls-1" d="M340.322 315.533h16.911a.539.539 0 0 1 .449.6.471.471 0 0 1-.516.516h-16.88a.593.593 0 0 1-.426-.605.48.48 0 0 1 .461-.513m-18.485-.145h5.378a.538.538 0 0 1 .448.6.471.471 0 0 1-.515.516H321.8a.548.548 0 0 1-.424-.578.514.514 0 0 1 .46-.54m9.38.071h5.378a.539.539 0 0 1 .448.6.471.471 0 0 1-.515.516h-5.347a.592.592 0 0 1-.426-.605.481.481 0 0 1 .461-.513m-21.907-.053h5.378a.539.539 0 0 1 .449.6.471.471 0 0 1-.515.516h-5.347a.565.565 0 0 1-.436-.586.511.511 0 0 1 .471-.532m52.227 3.821h.888a.52.52 0 0 1 .653.5.5.5 0 0 1-.58.514h-.961v-1.011zm-.95 3.584h2.092a1.325 1.325 0 0 0 1.524-1.253 1.056 1.056 0 0 0-.792-1.1.947.947 0 0 0 .587-.9c0-.805-.557-1.072-1.379-1.072h-2.031v4.322zm.95-1.925h1.033a.584.584 0 0 1 .685.617.576.576 0 0 1-.7.569h-1.015v-1.186zm4.291-1.659h1.04a.61.61 0 1 1 0 1.217h-1.04v-1.217zm-.949 3.584h.949v-1.689h.95a.63.63 0 0 1 .72.654 4.764 4.764 0 0 0 .151 1.035h.95a2.358 2.358 0 0 1-.182-1.023.982.982 0 0 0-.628-1.011v-.012a1.064 1.064 0 0 0 .683-1.084 1.187 1.187 0 0 0-1.264-1.193h-2.328v4.32zm6.052-3.257h.013l.544 1.586h-1.118l.561-1.586zm-2.109 3.257h.961l.339-.962h1.615l.326.962h.986l-1.614-4.323h-.974l-1.639 4.323zm4.362-1.435a1.6 1.6 0 0 0 1.839 1.537c1.173 0 1.8-.592 1.8-1.385a1.381 1.381 0 0 0-1.283-1.26c-1.083-.279-1.288-.32-1.288-.653a.559.559 0 0 1 .653-.49.7.7 0 0 1 .853.653h.919a1.475 1.475 0 0 0-1.729-1.392 1.442 1.442 0 0 0-1.615 1.308 1.335 1.335 0 0 0 1.288 1.229c.635.169 1.282.249 1.282.714a.705.705 0 0 1-.84.54.819.819 0 0 1-.956-.8h-.919zm3.958 0a1.6 1.6 0 0 0 1.839 1.537c1.172 0 1.8-.592 1.8-1.385a1.381 1.381 0 0 0-1.282-1.26c-1.083-.279-1.288-.32-1.288-.653a.558.558 0 0 1 .653-.49.7.7 0 0 1 .852.653h.92a1.475 1.475 0 0 0-1.73-1.392 1.442 1.442 0 0 0-1.614 1.308 1.335 1.335 0 0 0 1.287 1.229c.636.169 1.283.249 1.283.714a.706.706 0 0 1-.84.54.819.819 0 0 1-.956-.8h-.924zm5.115.641a.99.99 0 0 0 1.135.972.93.93 0 0 0 1.082-.854.72.72 0 0 0-.529-.694c-.141-.042-.743-.2-.785-.21a.366.366 0 0 1-.323-.351.42.42 0 0 1 .5-.354.5.5 0 0 1 .587.48h.478a.917.917 0 0 0-1.043-.869.877.877 0 0 0-.994.8.69.69 0 0 0 .6.69c.372.1.62.153.81.226a.323.323 0 0 1 .225.335.468.468 0 0 1-.575.412.586.586 0 0 1-.689-.583h-.477zm2.653.907h.475V321.8h.7c.438 0 .541.222.541.721a.758.758 0 0 0 .073.4h.51a1.243 1.243 0 0 1-.148-.717.5.5 0 0 0-.4-.575v-.008a.661.661 0 0 0 .449-.686.746.746 0 0 0-.9-.735h-1.3v2.722zm.475-2.333h.773a.39.39 0 0 1 .473.415.4.4 0 0 1-.465.435h-.781v-.85z" transform="translate(-305.31 -308.805)"/><path class="cls-1" d="M82.299 14.111h1.858v-.412h-1.382V11.39h-.476v2.721z"/><path class="cls-2" d="M55.645 20.754h27.254v-2.528H55.645v2.528z"/><path class="cls-3" d="M.931 20.754h27.254v-2.528H.931v2.528z"/><path class="cls-4" d="M28.288 20.754h27.254v-2.528H28.288v2.528z"/><path class="cls-5" d="M.931 20.754H82.9v-2.528H.931v2.528z"/><path class="cls-6" d="M317.555 331.686h.372l.927 2.685h-.384l-.283-.883h-.894l-.283.883h-.38l.924-2.685zm-.186 1.542h.752l-.335-1.08a.918.918 0 0 1-.041-.216.733.733 0 0 1-.045.216l-.331 1.08zm2.99-1.162a.342.342 0 0 1 .13-.134.415.415 0 0 1-.175.049h-1.206l.082-.294h1.791l-1.415 2.275-.06.1-.074.063a.556.556 0 0 1 .209-.049h1.322l-.093.294h-1.933l1.422-2.3z" transform="translate(-305.31 -308.805)"/><path class="cls-6" d="M16.065 22.881h.35v2.685h-.35v-2.685zm.994 0h1.471l-.074.287H17.41v.893h.979v.283h-.979v.935h1.124l-.078.287h-1.397v-2.685z"/><path class="cls-6" d="M324.336 331.686h.421l1.408 2.111a1.116 1.116 0 0 1 .145.305l-.022-.156-.011-.142v-2.119h.346v2.685h-.413l-1.422-2.13a.964.964 0 0 1-.13-.3c0 .052.007.1.011.123.007.082.011.138.011.171l.008 2.134h-.346v-2.685zm2.931 0h.547a1.343 1.343 0 1 1 .022 2.685h-.57v-2.685zm.35 2.387h.183a1.046 1.046 0 0 0-.007-2.093h-.175v2.093zm2.618-2.387h.372l.927 2.685h-.384l-.283-.883h-.894l-.283.883h-.38l.924-2.685zm-.186 1.542h.751l-.335-1.08a.918.918 0 0 1-.041-.216.734.734 0 0 1-.045.216l-.331 1.08zM335 332.2c-.052-.033-.089-.063-.119-.078a.95.95 0 0 0-.547-.167 1.063 1.063 0 0 0-1.043 1.087 1.076 1.076 0 0 0 1.076 1.072 1.094 1.094 0 0 0 .313-.048 1.132 1.132 0 0 0 .335-.171l.149.257a1.818 1.818 0 0 1-.209.126 1.429 1.429 0 0 1-.626.142 1.386 1.386 0 0 1-1.393-1.382 1.4 1.4 0 0 1 1.4-1.393 1.336 1.336 0 0 1 .432.074 1.439 1.439 0 0 1 .4.216l-.168.265z" transform="translate(-305.31 -308.805)"/><path class="cls-6" d="M30.325 22.881h1.471l-.075.287h-1.046v.893h.979v.283h-.979v.935h1.124l-.078.287h-1.396v-2.685z"/><path class="cls-6" d="M337.6 331.686h.726a.8.8 0 0 1 .54.149.654.654 0 0 1 .257.54.745.745 0 0 1-.294.6.835.835 0 0 1-.525.119l.976 1.273h-.42l-.9-1.285v1.285h-.36v-2.685zm.35 1.2h.335a.472.472 0 0 0 .51-.484.436.436 0 0 0-.514-.432h-.331v.916z" transform="translate(-305.31 -308.805)"/><path class="cls-6" d="M34.06 22.881h1.609l-.09.298h-.57v2.387h-.35v-2.387h-.606l.007-.298zm1.921 0h.351v2.685h-.351v-2.685zm.995 0h1.441l-.082.287h-1.009v.897h.927l-.067.287h-.86v1.214h-.35v-2.685zm1.78 0h.35v2.685h-.35v-2.685z"/><path class="cls-6" d="M347 332.2c-.052-.033-.089-.063-.119-.078a.951.951 0 0 0-.547-.167 1.063 1.063 0 0 0-1.043 1.087 1.076 1.076 0 0 0 1.076 1.072 1.094 1.094 0 0 0 .313-.048 1.132 1.132 0 0 0 .335-.171l.149.257a1.848 1.848 0 0 1-.209.126 1.429 1.429 0 0 1-.626.142 1.386 1.386 0 0 1-1.393-1.382 1.4 1.4 0 0 1 1.4-1.393 1.336 1.336 0 0 1 .432.074 1.437 1.437 0 0 1 .4.216l-.168.265zm1.2-.514h.372l.927 2.685h-.383l-.283-.883h-.894l-.283.883h-.38l.924-2.685zm-.187 1.542h.752l-.335-1.08a.9.9 0 0 1-.041-.216.732.732 0 0 1-.045.216l-.331 1.08z" transform="translate(-305.31 -308.805)"/><path class="cls-6" d="M44.085 22.881h1.609l-.09.298h-.57v2.387h-.35v-2.387h-.607l.008-.298z"/><path class="cls-6" d="M351.831 331.686h.369l.928 2.685h-.384l-.283-.883h-.891l-.283.883h-.38l.923-2.685zm-.186 1.542h.755l-.335-1.08a.939.939 0 0 1-.041-.216.734.734 0 0 1-.044.216l-.332 1.08z" transform="translate(-305.31 -308.805)"/><path class="cls-6" d="M49.347 22.881h.35v2.685h-.35v-2.685z"/><path class="cls-6" d="M355.64 333.82a2.053 2.053 0 0 0 .234.182.689.689 0 0 0 .377.116.529.529 0 0 0 .562-.521.405.405 0 0 0-.164-.339 1.064 1.064 0 0 0-.421-.142 1.165 1.165 0 0 1-.447-.175.637.637 0 0 1-.253-.525.8.8 0 0 1 .842-.774 1.149 1.149 0 0 1 .291.037 1.123 1.123 0 0 1 .35.138l-.1.264a1.174 1.174 0 0 0-.533-.16.474.474 0 0 0-.5.473.367.367 0 0 0 .149.29.928.928 0 0 0 .439.164 1.574 1.574 0 0 1 .443.168.62.62 0 0 1 .268.54.87.87 0 0 1-.919.853 1.176 1.176 0 0 1-.328-.048 1.2 1.2 0 0 1-.473-.287l.19-.253zm3.315-2.171a1.382 1.382 0 1 1-1.4 1.382 1.369 1.369 0 0 1 1.4-1.382zm-1.055 1.381a1.045 1.045 0 1 0 1.039-1.084 1.069 1.069 0 0 0-1.039 1.084zm4.853.414a.854.854 0 0 1-.774-.864.951.951 0 0 1 1.9-.011 1.256 1.256 0 0 1-.26.7 7.837 7.837 0 0 1-.507.6l-.451.5h-.439l.305-.313c.253-.264.35-.372.618-.682a1.54 1.54 0 0 1-.391.067zm-.453-.844a.628.628 0 1 0 .629-.648.64.64 0 0 0-.629.648zm2.993-.97a1.47 1.47 0 1 1-1.017 1.4 1.217 1.217 0 0 1 1.017-1.4zm-.674 1.4a.761.761 0 1 0 .674-1.11.936.936 0 0 0-.674 1.11z" transform="translate(-305.31 -308.805)"/><path class="cls-6" d="M367.684 331.63a1.47 1.47 0 1 1-1.017 1.4 1.217 1.217 0 0 1 1.017-1.4zm-.674 1.4a.761.761 0 1 0 .674-1.11.936.936 0 0 0-.674 1.11z" transform="translate(-305.31 -308.805)"/><path class="cls-6" d="M63.99 22.881h.507v2.685h-.347V23.19h-.257l.097-.309z"/><path class="cls-6" d="M371.181 332.464a.229.229 0 1 1 0 .458.235.235 0 0 1-.234-.231.229.229 0 0 1 .231-.227zm0 1.474a.233.233 0 0 1 .234.231.231.231 0 0 1-.234.231.226.226 0 0 1-.224-.231.228.228 0 0 1 .224-.231zm1.202-.159c.209-.231.291-.317.5-.577a1.893 1.893 0 0 0 .35-.562.857.857 0 0 0 .052-.276.409.409 0 0 0-.424-.439.442.442 0 0 0-.353.16.586.586 0 0 0-.115.358h-.339a.838.838 0 0 1 .2-.551.774.774 0 0 1 .6-.238.7.7 0 0 1 .763.718 1.279 1.279 0 0 1-.3.741c-.082.108-.179.22-.283.347-.212.253-.3.346-.555.607h1.158l-.093.305h-1.739c.272-.268.372-.369.577-.592zm2.805-2.149a1.47 1.47 0 1 1-1.017 1.4 1.217 1.217 0 0 1 1.017-1.4zm-.673 1.4a.761.761 0 1 0 .673-1.11.935.935 0 0 0-.673 1.11z" transform="translate(-305.31 -308.805)"/><path class="cls-6" d="M377.579 331.63a1.47 1.47 0 1 1-1.017 1.4 1.217 1.217 0 0 1 1.017-1.4zm-.673 1.4a.761.761 0 1 0 .673-1.11.935.935 0 0 0-.673 1.11z" transform="translate(-305.31 -308.805)"/><path class="cls-6" d="M379.418 332.8a.572.572 0 0 1-.2-.454.758.758 0 0 1 1.512 0 .648.648 0 0 1-.06.279.5.5 0 0 1-.335.268 1.773 1.773 0 0 1 .246.1.707.707 0 0 1 .282.581.892.892 0 0 1-1.78.007.732.732 0 0 1 .086-.342.654.654 0 0 1 .448-.35.727.727 0 0 1-.194-.1zm0 .771a.551.551 0 1 0 1.1 0 .551.551 0 0 0-1.1 0zm.112-1.222a.439.439 0 0 0 .879 0 .439.439 0 0 0-.879 0z" transform="translate(-305.31 -308.805)"/></svg>