<svg id="Layer_1" data-name="Layer 1" xmlns="http://www.w3.org/2000/svg" viewBox="0 0 99.685 15.358"><defs><style>.cls-1,.cls-2{fill:#b42f1d;fill-rule:evenodd}.cls-2{fill:#5c5d60}</style></defs><title>viadrus</title><path class="cls-1" d="M33.258 15.358l-2.514-7.009-2.509 7.009h5.023z"/><path class="cls-2" d="M43.676 317.586a11.972 11.972 0 0 0-.45 1.658h-.037s-.141-.67-.467-1.695-2.856-8.743-2.856-8.743h-2.784l4.454 12.956h3.193l4.362-12.956h-2.58s-2.447 7.566-2.836 8.779z" transform="translate(-37.082 -308.584)"/><path class="cls-2" d="M16.936 13.179h2.598V.223h-2.598v12.956z"/><path class="cls-2" d="M66.415 308.807l-5.049 12.956h2.692s2.753-7.612 3.233-8.929a10.067 10.067 0 0 0 .517-1.642h.037a7.619 7.619 0 0 0 .515 1.651c.537 1.484 3.2 8.92 3.2 8.92h2.877l-5.085-12.956h-2.937zm16.817 10.914h-1.489a6.535 6.535 0 0 0 .037-1.049v-6.885a8.041 8.041 0 0 0-.037-.966h1.485a4.168 4.168 0 0 1 4.362 4.464 4.315 4.315 0 0 1-4.362 4.436zm-.5-10.914h-3.583a6.253 6.253 0 0 1 .037.968v11.988h4.227c3.031 0 6.8-1.336 6.8-6.477s-3.508-6.478-7.481-6.478zm37.196 7.48c0 2.209-.706 3.657-2.692 3.657s-2.691-1.448-2.691-3.657v-7.48h-2.6v8.278c0 3.471 1.967 4.9 5.29 4.9s5.29-1.43 5.29-4.9v-8.278h-2.6v7.48zm11.159-3.861a1.8 1.8 0 0 1 2.042-1.8 6.711 6.711 0 0 1 2.636.557l.241-2.134a9.78 9.78 0 0 0-3.1-.464c-2.282 0-4.528 1.058-4.528 3.954 0 4.288 5.679 3.267 5.679 5.735 0 1.169-1.317 1.671-2.3 1.671a6.245 6.245 0 0 1-2.933-.8l-.242 2.339a11.405 11.405 0 0 0 3.322.5c2.618 0 4.863-1.077 4.863-3.917 0-4.343-5.68-3.4-5.68-5.643zm-27.733 4.055a3.077 3.077 0 0 0 .936-.349 3.467 3.467 0 0 0 1.81-3.191 3.985 3.985 0 0 0-1.484-3.2c-1.141-.921-2.3-.921-4.032-.939h-4.353a6.068 6.068 0 0 1 .048.975v12.01h2.574v-10.05a5.922 5.922 0 0 0-.04-.923h1.137a5.608 5.608 0 0 1 2.577.359 1.858 1.858 0 0 1 1.015 1.765 1.989 1.989 0 0 1-2.267 1.991c-.508 0-.677-.013-1.505-.013l3.671 6.867h2.959l-2.528-4.65a1.938 1.938 0 0 0-.518-.652z" transform="translate(-37.082 -308.584)"/></svg>