<svg id="Layer_1" xmlns="http://www.w3.org/2000/svg" viewBox="0 0 214.8 61.9"><style>.st0{fill:#ed2224}</style><title>Asset 1</title><g id="Layer_2_1_"><g id="Layer_1-2"><path class="st0" d="M69.9 8.5l12.1.1-15 46.7H53.2L37.3 8.6h13.6L59.8 38zm13 0h12.4v46.9H82.9zm43.8-.8c.2.1.3.1.5.1v10.5h-2.9c-4.3-.1-8.3 2.5-9.9 6.5-.6 1.7-.4 4.6-.4 8.3v22.2l-13.2.1V8.6H114v5.5c2.1-3 1.9-2.6 3.3-3.7 2.5-2 5.7-3 8.9-2.8 0 0 .2 0 .5.1"/><path class="st0" d="M154.1 36.8c-.1 4.2-1.3 6.7-3.4 8.6-2 1.8-4.6 2.8-7.2 2.7-1.9-.1-3.6-.7-5.2-1.7-1.2-.9-1.7-2.7-1.7-4.8 0-4.4 3.4-6.1 8.9-6.7l3-.3c1.4-.3 4.8-.7 5.6-1.5v3.7zm-11.9-9.2c-3.7.4-7.3 1.2-10.8 2.4-6 2.1-7.7 6.8-7.7 12.7.1 4.1 2 7.9 5.1 10.5 2.8 2.5 6.5 2.9 10.8 2.9 3.2.1 6.4-.4 9.4-1.5 2.2-.7 4.1-2 5.7-3.7.1 1.1.2 3.6.7 4.3h12.5c-.8-2.1-1.3-4.2-1.5-6.4-.2-2.2-.4-4-.4-5.5l-.1-22c0-5.7-1.4-9.5-5.4-11.5s-8.6-2.5-13.9-2.5c-8 0-13.3 1.8-16.6 5.9-2.1 2.6-3.4 5.9-3.4 9.3h10.8c.3-1.5 1-2.9 2.1-4 1.2-1.5 3.8-2.3 6.8-2.3 2.2 0 4.3.4 6.3 1.4 1.4.7 2 2.1 2 4 0 1.6-1.2 3-3 3.9-1.6.8-3.3 1.3-5 1.5l-4.4.6z"/><path class="st0" d="M167.8 55.3l16-24.5-15.2-22.2h14l8.2 11.6 7.8-11.7 14.5.1-14.8 22 16.5 24.7h-14.1l-9.3-14.2-9.2 14.2zM19.5 24.6v9.5h11L17.3 54.6 3.8 34.1h6.3l7.2 11 4.1-6.7h-6.6l.1-13.8C6.2 25.9.4 33.9 1.7 42.4S11 56.8 19.5 55.5s14.4-9.3 13.1-17.8c-1-6.8-6.3-12.1-13.1-13.1"/></g></g></svg>